<svg xmlns="http://www.w3.org/2000/svg" xmlns:xlink="http://www.w3.org/1999/xlink" viewBox="0 0 111 24"><path d="M 22.843 10.703 L 12.21 10.703 C 12.071 10.703 11.938 10.758 11.839 10.857 C 11.741 10.956 11.685 11.09 11.685 11.23 L 11.685 14.049 C 11.685 14.189 11.741 14.324 11.839 14.422 C 11.938 14.521 12.071 14.577 12.21 14.577 L 18.624 14.64 C 18.5 15.29 18.287 15.918 17.989 16.508 C 17.459 17.518 16.635 18.342 15.627 18.868 C 14.477 19.422 13.212 19.694 11.937 19.659 C 10.654 19.691 9.387 19.36 8.281 18.704 C 7.175 18.048 6.274 17.093 5.681 15.948 C 5.054 14.687 4.74 13.292 4.768 11.882 C 4.735 10.488 5.061 9.11 5.713 7.881 C 6.317 6.753 7.227 5.82 8.337 5.191 C 9.522 4.522 10.862 4.182 12.221 4.207 C 13.437 4.193 14.64 4.451 15.745 4.961 C 16.615 5.369 17.395 5.948 18.038 6.665 C 18.088 6.722 18.149 6.768 18.216 6.801 C 18.284 6.834 18.358 6.852 18.433 6.856 C 18.509 6.859 18.584 6.847 18.654 6.821 C 18.725 6.795 18.789 6.754 18.844 6.702 L 21.088 4.447 C 21.18 4.356 21.235 4.233 21.24 4.103 C 21.246 3.973 21.201 3.846 21.116 3.748 C 20.107 2.614 18.864 1.714 17.474 1.111 C 15.826 0.381 14.04 0.017 12.239 0.042 C 10.62 0.029 9.014 0.341 7.516 0.96 C 6.086 1.533 4.786 2.393 3.698 3.487 C 2.587 4.585 1.707 5.897 1.112 7.344 C 0.516 8.792 0.217 10.345 0.231 11.911 C 0.218 13.508 0.518 15.092 1.113 16.573 C 1.71 17.978 2.561 19.259 3.624 20.35 C 4.702 21.435 5.975 22.303 7.377 22.908 C 8.839 23.499 10.403 23.794 11.979 23.779 C 14.021 23.821 16.04 23.348 17.852 22.402 C 19.583 21.45 20.992 20.001 21.898 18.24 C 22.876 16.382 23.366 14.075 23.368 11.32 L 23.368 11.225 C 23.367 11.086 23.311 10.953 23.212 10.855 C 23.114 10.758 22.981 10.703 22.843 10.703 Z" fill="rgb(29,32,38)"></path><path d="M 26.832 23.723 C 26.693 23.723 26.559 23.668 26.461 23.569 C 26.362 23.47 26.307 23.336 26.307 23.196 L 26.307 8.411 C 26.307 8.271 26.362 8.137 26.461 8.038 C 26.559 7.939 26.693 7.883 26.832 7.883 L 30.088 7.883 C 30.228 7.883 30.361 7.939 30.459 8.038 C 30.558 8.137 30.613 8.271 30.613 8.411 L 30.613 23.196 C 30.613 23.336 30.558 23.47 30.459 23.569 C 30.361 23.668 30.228 23.723 30.088 23.723 Z" fill="rgb(29,32,38)"></path><path d="M 30.907 3.091 L 30.907 0.668 C 30.907 0.528 30.852 0.393 30.753 0.295 C 30.655 0.196 30.521 0.14 30.382 0.14 L 28.188 0.14 C 27.903 0.14 27.62 0.197 27.356 0.306 C 27.092 0.416 26.852 0.577 26.65 0.78 C 26.448 0.983 26.288 1.224 26.179 1.49 C 26.069 1.755 26.013 2.039 26.013 2.326 L 26.013 4.526 C 26.013 4.666 26.068 4.8 26.167 4.899 C 26.265 4.998 26.399 5.053 26.538 5.053 L 28.949 5.053 C 29.468 5.053 29.964 4.846 30.331 4.478 C 30.698 4.111 30.905 3.612 30.907 3.091 Z" fill="rgb(193,253,51)"></path><path d="M 48.515 10.571 C 48.003 9.642 47.261 8.863 46.36 8.308 C 45.437 7.715 44.362 7.407 43.266 7.422 C 42.14 7.406 41.029 7.678 40.036 8.213 C 39.542 8.488 39.092 8.835 38.698 9.242 L 38.698 8.279 C 38.698 8.139 38.643 8.005 38.544 7.906 C 38.446 7.807 38.312 7.751 38.173 7.751 L 34.94 7.751 C 34.801 7.751 34.667 7.807 34.569 7.906 C 34.471 8.005 34.415 8.139 34.415 8.279 L 34.415 23.064 C 34.415 23.204 34.471 23.338 34.569 23.437 C 34.667 23.536 34.801 23.591 34.94 23.591 L 38.165 23.591 C 38.304 23.591 38.438 23.536 38.536 23.437 C 38.635 23.338 38.69 23.204 38.69 23.064 L 38.69 14.506 C 38.678 13.924 38.813 13.349 39.081 12.834 C 39.354 12.364 39.749 11.978 40.225 11.718 C 40.727 11.451 41.287 11.316 41.855 11.325 C 42.276 11.304 42.697 11.372 43.09 11.525 C 43.484 11.677 43.841 11.911 44.139 12.21 C 44.437 12.51 44.67 12.869 44.822 13.264 C 44.974 13.66 45.042 14.082 45.022 14.506 L 45.022 23.064 C 45.022 23.204 45.077 23.338 45.176 23.437 C 45.274 23.536 45.408 23.591 45.547 23.591 L 48.777 23.591 C 48.916 23.591 49.05 23.536 49.148 23.437 C 49.247 23.338 49.302 23.204 49.302 23.064 L 49.302 13.556 C 49.307 12.509 49.035 11.478 48.515 10.571 Z" fill="rgb(29,32,38)"></path><path d="M 55.151 2.611 C 55.051 2.649 54.965 2.717 54.905 2.806 C 54.844 2.895 54.812 3 54.813 3.107 L 54.813 6.691 C 54.813 6.971 54.702 7.239 54.505 7.437 C 54.308 7.635 54.041 7.746 53.763 7.746 L 52.551 7.746 C 52.458 7.746 52.367 7.77 52.287 7.816 C 52.207 7.863 52.14 7.929 52.094 8.01 L 50.533 10.737 C 50.487 10.817 50.462 10.908 50.462 11.001 C 50.463 11.094 50.487 11.185 50.533 11.265 C 50.58 11.346 50.646 11.412 50.726 11.458 C 50.806 11.504 50.897 11.529 50.989 11.528 L 54.288 11.528 C 54.427 11.528 54.561 11.584 54.659 11.683 C 54.757 11.782 54.813 11.916 54.813 12.056 L 54.813 18.57 C 54.768 19.571 55.023 20.562 55.545 21.416 C 56.043 22.168 56.753 22.754 57.584 23.098 C 58.501 23.464 59.485 23.629 60.47 23.584 C 60.985 23.578 61.498 23.522 62.003 23.417 C 62.202 23.373 62.378 23.33 62.528 23.288 C 62.65 23.255 62.756 23.175 62.82 23.065 C 62.885 22.955 62.904 22.824 62.874 22.7 L 62.365 20.326 C 62.333 20.189 62.25 20.07 62.132 19.993 C 62.015 19.916 61.873 19.887 61.735 19.912 C 61.493 19.953 61.248 19.973 61.003 19.97 C 60.674 19.974 60.347 19.918 60.037 19.804 C 59.738 19.687 59.488 19.47 59.329 19.19 C 59.134 18.779 59.044 18.326 59.066 17.871 L 59.066 12.069 C 59.066 11.929 59.122 11.795 59.22 11.696 C 59.319 11.597 59.452 11.541 59.591 11.541 L 61.591 11.541 C 61.683 11.542 61.774 11.518 61.854 11.471 C 61.935 11.425 62.001 11.358 62.047 11.278 L 63.622 8.553 C 63.668 8.473 63.692 8.382 63.692 8.289 C 63.692 8.196 63.668 8.105 63.621 8.025 C 63.575 7.945 63.508 7.878 63.428 7.832 C 63.348 7.786 63.258 7.762 63.165 7.762 L 59.596 7.762 C 59.457 7.762 59.324 7.706 59.225 7.608 C 59.127 7.509 59.072 7.374 59.072 7.235 L 59.072 1.569 C 59.071 1.527 59.061 1.486 59.042 1.449 C 59.023 1.412 58.995 1.379 58.961 1.355 C 58.927 1.331 58.887 1.315 58.846 1.309 C 58.804 1.304 58.762 1.308 58.723 1.322 Z" fill="rgb(29,32,38)"></path><path d="M 78.826 11.119 C 78.194 9.939 77.244 8.962 76.084 8.3 C 74.87 7.581 73.48 7.216 72.072 7.245 C 70.622 7.237 69.195 7.608 67.93 8.321 C 66.665 9.033 65.607 10.064 64.858 11.312 C 64.127 12.588 63.756 14.039 63.782 15.511 C 63.756 17.007 64.14 18.481 64.892 19.773 C 65.639 21.013 66.697 22.035 67.96 22.737 C 69.186 23.36 70.529 23.714 71.902 23.776 C 73.274 23.839 74.644 23.608 75.921 23.098 C 76.853 22.719 77.698 22.149 78.401 21.426 C 78.492 21.331 78.541 21.203 78.538 21.071 C 78.535 20.939 78.48 20.813 78.385 20.722 L 76.611 18.937 C 76.505 18.836 76.364 18.78 76.218 18.78 C 76.071 18.78 75.931 18.836 75.824 18.937 C 75.436 19.289 74.993 19.575 74.512 19.78 C 73.815 20.053 73.073 20.187 72.326 20.176 C 71.509 20.194 70.7 20.001 69.977 19.617 C 69.307 19.233 68.761 18.664 68.403 17.977 C 68.262 17.681 68.15 17.372 68.07 17.053 L 79.18 17.027 C 79.298 17.029 79.413 16.989 79.505 16.914 C 79.596 16.839 79.659 16.735 79.681 16.618 C 79.717 16.428 79.743 16.236 79.758 16.043 C 79.801 15.75 79.823 15.454 79.823 15.157 C 79.853 13.746 79.509 12.353 78.826 11.119 Z M 69.852 11.415 C 70.521 11.01 71.291 10.806 72.072 10.824 C 72.782 10.801 73.485 10.984 74.095 11.351 C 74.662 11.683 75.108 12.189 75.367 12.794 C 75.519 13.122 75.635 13.465 75.714 13.817 L 68.085 13.841 C 68.158 13.561 68.258 13.288 68.382 13.026 C 68.704 12.358 69.215 11.8 69.852 11.423 Z" fill="rgb(29,32,38)"></path><path d="M 94.235 8.696 C 93.847 8.32 93.391 8.024 92.891 7.823 C 92.24 7.551 91.539 7.416 90.834 7.427 C 89.074 7.427 87.725 7.996 86.788 9.133 L 86.756 9.176 L 86.756 8.279 C 86.756 8.139 86.701 8.005 86.602 7.906 C 86.504 7.807 86.371 7.751 86.231 7.751 L 83.006 7.751 C 82.867 7.751 82.734 7.807 82.635 7.906 C 82.537 8.005 82.481 8.139 82.481 8.279 L 82.481 23.064 C 82.481 23.204 82.537 23.338 82.635 23.437 C 82.734 23.536 82.867 23.591 83.006 23.591 L 86.231 23.591 C 86.371 23.591 86.504 23.536 86.602 23.437 C 86.701 23.338 86.756 23.204 86.756 23.064 L 86.756 14.055 C 86.793 13.993 86.818 13.925 86.832 13.854 C 86.914 13.237 87.188 12.662 87.614 12.211 C 88.062 11.797 88.613 11.513 89.209 11.39 C 89.805 11.268 90.423 11.311 90.997 11.515 C 91.148 11.571 91.293 11.643 91.43 11.729 C 91.555 11.817 91.707 11.859 91.859 11.846 C 92.012 11.834 92.155 11.768 92.264 11.66 L 94.251 9.371 C 94.334 9.277 94.379 9.155 94.376 9.03 C 94.373 8.905 94.322 8.785 94.235 8.696 Z" fill="rgb(29,32,38)"></path><path d="M 110.41 7.62 L 107.219 7.62 C 107.08 7.62 106.946 7.675 106.848 7.774 C 106.749 7.873 106.694 8.007 106.694 8.147 L 106.694 9.147 C 106.256 8.668 105.736 8.272 105.159 7.978 C 104.217 7.508 103.177 7.272 102.125 7.29 C 100.754 7.272 99.407 7.648 98.242 8.374 C 97.09 9.093 96.154 10.113 95.534 11.325 C 94.868 12.63 94.531 14.079 94.555 15.545 C 94.532 17.004 94.869 18.446 95.534 19.744 C 96.153 20.959 97.089 21.982 98.242 22.705 C 99.408 23.428 100.755 23.8 102.125 23.779 C 103.177 23.797 104.217 23.561 105.159 23.09 C 105.731 22.792 106.249 22.401 106.694 21.933 L 106.694 22.945 C 106.694 23.085 106.749 23.219 106.848 23.318 C 106.946 23.417 107.08 23.473 107.219 23.473 L 110.41 23.473 C 110.549 23.473 110.682 23.417 110.781 23.318 C 110.879 23.219 110.935 23.085 110.935 22.945 L 110.935 8.147 C 110.935 8.007 110.879 7.873 110.781 7.774 C 110.682 7.675 110.549 7.62 110.41 7.62 Z M 105.812 18.638 C 105.439 19.032 104.988 19.341 104.487 19.545 C 103.986 19.749 103.447 19.844 102.907 19.823 C 102.174 19.836 101.449 19.654 100.808 19.295 C 100.226 18.919 99.749 18.4 99.423 17.787 C 99.084 17.082 98.916 16.306 98.932 15.524 C 98.916 14.762 99.084 14.008 99.423 13.327 C 99.741 12.702 100.226 12.179 100.824 11.816 C 101.459 11.438 102.186 11.245 102.923 11.259 C 103.661 11.239 104.39 11.432 105.022 11.816 C 105.631 12.165 106.121 12.692 106.426 13.327 C 106.786 14.002 106.967 14.758 106.951 15.524 C 106.988 16.671 106.58 17.788 105.812 18.638 Z" fill="rgb(29,32,38)"></path></svg>