<svg xmlns="http://www.w3.org/2000/svg" xmlns:xlink="http://www.w3.org/1999/xlink" viewBox="0 0 232 259" preserveAspectRatio="xMidYMid meet" style="width: 100%; height: 100%; transform: translate3d(0px, 0px, 0px); content-visibility: visible;"><defs><clipPath id="__lottie_element_76"><rect width="232" height="259" x="0" y="0"/></clipPath><clipPath id="__lottie_element_78"><path d="M0,0 L372,0 L372,259 L0,259z"/></clipPath><g id="__lottie_element_85"><g transform="matrix(1.0499999523162842,0,0,1.0499999523162842,-157.77496337890625,-574.52490234375)" opacity="1" style="display: block;"><g opacity="1" transform="matrix(1,0,0,1,328.45001220703125,696.5499877929688)"><path fill="rgb(24,24,23)" fill-opacity="1" d=" M-15.649999618530273,77.55000305175781 C-15.24899959564209,77.55000305175781 16.150999069213867,77.5479965209961 16.549999237060547,77.54399871826172 C65.68399810791016,77.04199981689453 98.44999694824219,45.68000030517578 98.44999694824219,0.15000000596046448 C98.44999694824219,-45.97600173950195 65.68399810791016,-77.0459976196289 16.549999237060547,-77.54399871826172 C16.150999069213867,-77.5479965209961 -15.24899959564209,-77.55000305175781 -15.649999618530273,-77.55000305175781 C-65.1500015258789,-77.55000305175781 -98.44999694824219,-46.349998474121094 -98.44999694824219,0.15000000596046448 C-98.44999694824219,46.04999923706055 -65.1500015258789,77.55000305175781 -15.649999618530273,77.55000305175781z"/></g></g></g><g id="__lottie_element_109"><g transform="matrix(1,0,0,1,413,158)" opacity="1" style="display: block;"><g opacity="1" transform="matrix(1,0,0,1,-224.5,-95.75)"><path fill="rgb(24,24,23)" fill-opacity="1" d=" M48.5,-85.25 C48.5,-85.25 48.5,85.25 48.5,85.25 C48.5,85.25 -48.5,85.25 -48.5,85.25 C-48.5,85.25 -48.5,-85.25 -48.5,-85.25 C-48.5,-85.25 48.5,-85.25 48.5,-85.25z"/><path stroke-linecap="butt" stroke-linejoin="miter" fill-opacity="0" stroke-miterlimit="4" stroke="rgb(24,24,23)" stroke-opacity="1" stroke-width="2" d=" M48.5,-85.25 C48.5,-85.25 48.5,85.25 48.5,85.25 C48.5,85.25 -48.5,85.25 -48.5,85.25 C-48.5,85.25 -48.5,-85.25 -48.5,-85.25 C-48.5,-85.25 48.5,-85.25 48.5,-85.25z"/></g></g></g><mask id="__lottie_element_109_1" mask-type="alpha"><use xmlns:ns1="http://www.w3.org/1999/xlink" ns1:href="#__lottie_element_109"/></mask><mask id="__lottie_element_85_1" mask-type="alpha"><use xmlns:ns2="http://www.w3.org/1999/xlink" ns2:href="#__lottie_element_85"/></mask><clipPath id="__lottie_element_132"><path d="M0,0 L372,0 L372,259 L0,259z"/></clipPath><g id="__lottie_element_139"><g style="display: none;"><g><path/></g></g></g><g id="__lottie_element_163"><g style="display: none;"><g><path/><path stroke-linecap="butt" stroke-linejoin="miter" fill-opacity="0" stroke-miterlimit="4"/></g></g></g><mask id="__lottie_element_163_1" mask-type="alpha"><use xmlns:ns3="http://www.w3.org/1999/xlink" ns3:href="#__lottie_element_163"/></mask><mask id="__lottie_element_139_1" mask-type="alpha"><use xmlns:ns4="http://www.w3.org/1999/xlink" ns4:href="#__lottie_element_139"/></mask></defs><g clip-path="url(#__lottie_element_76)"><g transform="matrix(1,0,0,1,0,0)" opacity="1" style="display: block;"><g opacity="1" transform="matrix(1,0,0,1,116,136.04600524902344)"><path fill="rgb(61,225,156)" fill-opacity="1" d=" M0,-116 C64.06500244140625,-116 116,-64.06500244140625 116,0 C116,64.06500244140625 64.06500244140625,116 0,116 C-64.06500244140625,116 -116,64.06500244140625 -116,0 C-116,-64.06500244140625 -64.06500244140625,-116 0,-116z"/></g></g><g transform="matrix(1,0,0,1,0,0)" opacity="1" style="display: block;"><g opacity="1" transform="matrix(1,0,0,1,116,136.0449981689453)"><path stroke-linecap="butt" stroke-linejoin="miter" fill-opacity="0" stroke-miterlimit="4" stroke="rgb(24,24,23)" stroke-opacity="1" stroke-width="2" d=" M0,-108 C59.64699935913086,-108 108,-59.64699935913086 108,0 C108,59.64699935913086 59.64699935913086,108 0,108 C-59.64699935913086,108 -108,59.64699935913086 -108,0 C-108,-59.64699935913086 -59.64699935913086,-108 0,-108z"/></g></g><g transform="matrix(1,0,0,1,0,0)" opacity="1" style="display: block;"><g opacity="1" transform="matrix(1,0,0,1,116,136.04600524902344)"><path stroke-linecap="butt" stroke-linejoin="miter" fill-opacity="0" stroke-miterlimit="4" stroke="rgb(24,24,23)" stroke-opacity="1" stroke-width="2" d=" M0,-74 C40.86899948120117,-74 74,-40.86899948120117 74,0 C74,40.86899948120117 40.86899948120117,74 0,74 C-40.86899948120117,74 -74,40.86899948120117 -74,0 C-74,-40.86899948120117 -40.86899948120117,-74 0,-74z"/></g></g><g transform="matrix(1,0,0,1,0,0)" opacity="1" style="display: block;"><g opacity="1" transform="matrix(1,0,0,1,43.034000396728516,82.13999938964844)"><path fill="rgb(24,24,23)" fill-opacity="1" d=" M6.517000198364258,5.664999961853027 C6.517000198364258,5.664999961853027 7.61899995803833,4.064000129699707 7.61899995803833,4.064000129699707 C7.61899995803833,4.064000129699707 -2.6019999980926514,-2.9709999561309814 -2.6019999980926514,-2.9709999561309814 C-2.6019999980926514,-2.9709999561309814 -3.7049999237060547,-1.3700000047683716 -3.7049999237060547,-1.3700000047683716 C-3.7049999237060547,-1.3700000047683716 6.517000198364258,5.664999961853027 6.517000198364258,5.664999961853027z M-5.642000198364258,-2.703000068664551 C-5.642000198364258,-2.703000068664551 -4.539999961853027,-4.303999900817871 -4.539999961853027,-4.303999900817871 C-4.539999961853027,-4.303999900817871 -6.517000198364258,-5.664999961853027 -6.517000198364258,-5.664999961853027 C-6.517000198364258,-5.664999961853027 -7.61899995803833,-4.064000129699707 -7.61899995803833,-4.064000129699707 C-7.61899995803833,-4.064000129699707 -5.642000198364258,-2.703000068664551 -5.642000198364258,-2.703000068664551z"/></g><g opacity="1" transform="matrix(1,0,0,1,46.86600112915039,76.33599853515625)"><path fill="rgb(24,24,23)" fill-opacity="1" d=" M-3.6659998893737793,1.6369999647140503 C-3.6659998893737793,1.6369999647140503 -2.6050000190734863,0.30399999022483826 -2.6050000190734863,0.30399999022483826 C-2.6050000190734863,0.30399999022483826 5.864999771118164,7.044000148773193 5.864999771118164,7.044000148773193 C5.864999771118164,7.044000148773193 7.074999809265137,5.521999835968018 7.074999809265137,5.521999835968018 C7.074999809265137,5.521999835968018 -1.3949999809265137,-1.218000054359436 -1.3949999809265137,-1.218000054359436 C-1.3949999809265137,-1.218000054359436 0.03999999910593033,-3.0199999809265137 0.03999999910593033,-3.0199999809265137 C0.03999999910593033,-3.0199999809265137 -1.1990000009536743,-4.006999969482422 -1.1990000009536743,-4.006999969482422 C-1.1990000009536743,-4.006999969482422 -2.634000062942505,-2.2039999961853027 -2.634000062942505,-2.2039999961853027 C-2.634000062942505,-2.2039999961853027 -4.118000030517578,-3.384000062942505 -4.118000030517578,-3.384000062942505 C-4.906000137329102,-4.01200008392334 -4.866000175476074,-4.563000202178955 -4.089000225067139,-5.539999961853027 C-3.9700000286102295,-5.690000057220459 -3.9100000858306885,-5.764999866485596 -3.681999921798706,-6.013000011444092 C-3.681999921798706,-6.013000011444092 -4.978000164031982,-7.044000148773193 -4.978000164031982,-7.044000148773193 C-5.160999774932861,-6.853000164031982 -5.374000072479248,-6.623000144958496 -5.627999782562256,-6.303999900817871 C-6.913000106811523,-4.689000129699707 -7.074999809265137,-3.253000020980835 -5.4029998779296875,-1.9229999780654907 C-5.4029998779296875,-1.9229999780654907 -3.8440001010894775,-0.6830000281333923 -3.8440001010894775,-0.6830000281333923 C-3.8440001010894775,-0.6830000281333923 -4.906000137329102,0.6510000228881836 -4.906000137329102,0.6510000228881836 C-4.906000137329102,0.6510000228881836 -3.6659998893737793,1.6369999647140503 -3.6659998893737793,1.6369999647140503z"/></g><g opacity="1" transform="matrix(1,0,0,1,56.46099853515625,66.06199645996094)"><path fill="rgb(24,24,23)" fill-opacity="1" d=" M-3.700000047683716,0.9750000238418579 C-3.700000047683716,0.9750000238418579 -2.444000005722046,-0.17599999904632568 -2.444000005722046,-0.17599999904632568 C-2.444000005722046,-0.17599999904632568 4.869999885559082,7.803999900817871 4.869999885559082,7.803999900817871 C4.869999885559082,7.803999900817871 6.302999973297119,6.491000175476074 6.302999973297119,6.491000175476074 C6.302999973297119,6.491000175476074 -1.0099999904632568,-1.4900000095367432 -1.0099999904632568,-1.4900000095367432 C-1.0099999904632568,-1.4900000095367432 0.6880000233650208,-3.0460000038146973 0.6880000233650208,-3.0460000038146973 C0.6880000233650208,-3.0460000038146973 -0.38199999928474426,-4.214000225067139 -0.38199999928474426,-4.214000225067139 C-0.38199999928474426,-4.214000225067139 -2.0810000896453857,-2.6570000648498535 -2.0810000896453857,-2.6570000648498535 C-2.0810000896453857,-2.6570000648498535 -3.3610000610351562,-4.054999828338623 -3.3610000610351562,-4.054999828338623 C-4.043000221252441,-4.797999858856201 -3.9170000553131104,-5.335999965667725 -2.996999979019165,-6.179999828338623 C-2.8559999465942383,-6.309000015258789 -2.7850000858306885,-6.374000072479248 -2.5209999084472656,-6.584000110626221 C-2.5209999084472656,-6.584000110626221 -3.640000104904175,-7.803999900817871 -3.640000104904175,-7.803999900817871 C-3.8499999046325684,-7.644000053405762 -4.0960001945495605,-7.451000213623047 -4.395999908447266,-7.175000190734863 C-5.918000221252441,-5.781000137329102 -6.302999973297119,-4.388000011444092 -4.860000133514404,-2.812999963760376 C-4.860000133514404,-2.812999963760376 -3.5139999389648438,-1.343999981880188 -3.5139999389648438,-1.343999981880188 C-3.5139999389648438,-1.343999981880188 -4.769999980926514,-0.19300000369548798 -4.769999980926514,-0.19300000369548798 C-4.769999980926514,-0.19300000369548798 -3.700000047683716,0.9750000238418579 -3.700000047683716,0.9750000238418579z"/></g><g opacity="1" transform="matrix(1,0,0,1,66.03600311279297,61.597999572753906)"><path fill="rgb(24,24,23)" fill-opacity="1" d=" M7.6479997634887695,2.493000030517578 C7.6479997634887695,2.493000030517578 0.39100000262260437,-7.571000099182129 0.39100000262260437,-7.571000099182129 C0.39100000262260437,-7.571000099182129 -1.187000036239624,-6.434000015258789 -1.187000036239624,-6.434000015258789 C-1.187000036239624,-6.434000015258789 3.2790000438690186,-0.24400000274181366 3.2790000438690186,-0.24400000274181366 C4.429999828338623,1.3530000448226929 4.26800012588501,3.305000066757202 2.6710000038146973,4.455999851226807 C1.25,5.480999946594238 -0.1340000033378601,5.324999809265137 -1.0750000476837158,4.020999908447266 C-1.0750000476837158,4.020999908447266 -6.072999954223633,-2.9100000858306885 -6.072999954223633,-2.9100000858306885 C-6.072999954223633,-2.9100000858306885 -7.6479997634887695,-1.7730000019073486 -7.6479997634887695,-1.7730000019073486 C-7.6479997634887695,-1.7730000019073486 -2.621999979019165,5.197000026702881 -2.621999979019165,5.197000026702881 C-1.1200000047683716,7.28000020980835 1.1019999980926514,7.571000099182129 3.1649999618530273,6.083000183105469 C4.625,5.03000020980835 5.017000198364258,3.7699999809265137 5.035999774932861,2.2769999504089355 C5.035999774932861,2.2769999504089355 5.073999881744385,2.249000072479248 5.073999881744385,2.249000072479248 C5.073999881744385,2.249000072479248 6.072000026702881,3.63100004196167 6.072000026702881,3.63100004196167 C6.072000026702881,3.63100004196167 7.6479997634887695,2.493000030517578 7.6479997634887695,2.493000030517578z"/></g><g opacity="1" transform="matrix(1,0,0,1,76.9469985961914,55.487998962402344)"><path fill="rgb(24,24,23)" fill-opacity="1" d=" M-5.620999813079834,-4.307000160217285 C-5.620999813079834,-4.307000160217285 -7.3460001945495605,-3.4100000858306885 -7.3460001945495605,-3.4100000858306885 C-7.3460001945495605,-3.4100000858306885 -1.6169999837875366,7.5980000495910645 -1.6169999837875366,7.5980000495910645 C-1.6169999837875366,7.5980000495910645 0.10700000077486038,6.701000213623047 0.10700000077486038,6.701000213623047 C0.10700000077486038,6.701000213623047 -3.4159998893737793,-0.07000000029802322 -3.4159998893737793,-0.07000000029802322 C-4.357999801635742,-1.8799999952316284 -3.7230000495910645,-3.7799999713897705 -1.9780000448226929,-4.688000202178955 C-0.4230000078678131,-5.497000217437744 0.9340000152587891,-5.175000190734863 1.6770000457763672,-3.749000072479248 C1.6770000457763672,-3.749000072479248 5.620999813079834,3.8310000896453857 5.620999813079834,3.8310000896453857 C5.620999813079834,3.8310000896453857 7.3460001945495605,2.933000087738037 7.3460001945495605,2.933000087738037 C7.3460001945495605,2.933000087738037 3.3239998817443848,-4.796000003814697 3.3239998817443848,-4.796000003814697 C2.138000011444092,-7.073999881744385 0.07900000363588333,-7.5980000495910645 -2.2200000286102295,-6.4019999504089355 C-3.816999912261963,-5.571000099182129 -4.579999923706055,-4.335000038146973 -4.824999809265137,-2.88100004196167 C-4.824999809265137,-2.88100004196167 -4.868000030517578,-2.8589999675750732 -4.868000030517578,-2.8589999675750732 C-4.868000030517578,-2.8589999675750732 -5.620999813079834,-4.307000160217285 -5.620999813079834,-4.307000160217285z"/></g><g opacity="1" transform="matrix(1,0,0,1,88.62200164794922,50.35200119018555)"><path fill="rgb(24,24,23)" fill-opacity="1" d=" M-4.984000205993652,-4.953999996185303 C-4.984000205993652,-4.953999996185303 -6.818999767303467,-4.310999870300293 -6.818999767303467,-4.310999870300293 C-6.818999767303467,-4.310999870300293 -2.7160000801086426,7.400000095367432 -2.7160000801086426,7.400000095367432 C-2.7160000801086426,7.400000095367432 -0.8820000290870667,6.756999969482422 -0.8820000290870667,6.756999969482422 C-0.8820000290870667,6.756999969482422 -3.4049999713897705,-0.4449999928474426 -3.4049999713897705,-0.4449999928474426 C-4.078999996185303,-2.371000051498413 -3.180999994277954,-4.160999774932861 -1.3229999542236328,-4.810999870300293 C0.33000001311302185,-5.389999866485596 1.628000020980835,-4.879000186920166 2.1600000858306885,-3.3610000610351562 C2.1600000858306885,-3.3610000610351562 4.985000133514404,4.702000141143799 4.985000133514404,4.702000141143799 C4.985000133514404,4.702000141143799 6.818999767303467,4.059000015258789 6.818999767303467,4.059000015258789 C6.818999767303467,4.059000015258789 3.938999891281128,-4.163000106811523 3.938999891281128,-4.163000106811523 C3.0899999141693115,-6.585999965667725 1.1269999742507935,-7.39900016784668 -1.319000005722046,-6.541999816894531 C-3.0179998874664307,-5.947000026702881 -3.950000047683716,-4.833000183105469 -4.39900016784668,-3.430000066757202 C-4.39900016784668,-3.430000066757202 -4.443999767303467,-3.4130001068115234 -4.443999767303467,-3.4130001068115234 C-4.443999767303467,-3.4130001068115234 -4.984000205993652,-4.953999996185303 -4.984000205993652,-4.953999996185303z"/></g><g opacity="1" transform="matrix(1,0,0,1,99.21399688720703,48.84400177001953)"><path fill="rgb(24,24,23)" fill-opacity="1" d=" M0.3540000021457672,8.86299991607666 C1.8370000123977661,8.564000129699707 2.6740000247955322,7.85699987411499 3.1549999713897705,5.140999794006348 C3.1549999713897705,5.140999794006348 5.705999851226807,-9.057999610900879 5.705999851226807,-9.057999610900879 C5.705999851226807,-9.057999610900879 3.681999921798706,-8.651000022888184 3.681999921798706,-8.651000022888184 C3.681999921798706,-8.651000022888184 2.431999921798706,-0.515999972820282 2.431999921798706,-0.515999972820282 C2.259000062942505,0.5720000267028809 2.109999895095825,2.0220000743865967 2.109999895095825,2.0220000743865967 C2.109999895095825,2.0220000743865967 2.062999963760376,2.0309998989105225 2.062999963760376,2.0309998989105225 C2.062999963760376,2.0309998989105225 1.3420000076293945,0.7570000290870667 0.7609999775886536,-0.17900000512599945 C0.7609999775886536,-0.17900000512599945 -3.634999990463257,-7.177000045776367 -3.634999990463257,-7.177000045776367 C-3.634999990463257,-7.177000045776367 -5.705999851226807,-6.760000228881836 -5.705999851226807,-6.760000228881836 C-5.705999851226807,-6.760000228881836 1.4259999990463257,4.093999862670898 1.4259999990463257,4.093999862670898 C1.4259999990463257,4.093999862670898 1.1970000267028809,5.388000011444092 1.1970000267028809,5.388000011444092 C0.9629999995231628,6.658999919891357 0.4830000102519989,7.073999881744385 -0.3160000145435333,7.235000133514404 C-0.9520000219345093,7.36299991607666 -1.375,7.326000213623047 -1.6629999876022339,7.236999988555908 C-1.6629999876022339,7.236999988555908 -1.7569999694824219,7.25600004196167 -1.7569999694824219,7.25600004196167 C-1.7569999694824219,7.25600004196167 -1.4160000085830688,8.949999809265137 -1.4160000085830688,8.949999809265137 C-0.8550000190734863,9.057999610900879 -0.375,9.010000228881836 0.3540000021457672,8.86299991607666z"/></g><g opacity="1" transform="matrix(1,0,0,1,121.18199920654297,45.30500030517578)"><path fill="rgb(24,24,23)" fill-opacity="1" d=" M-5.203999996185303,6.105000019073486 C-5.203999996185303,6.105000019073486 -3.190000057220459,6.175000190734863 -3.190000057220459,6.175000190734863 C-3.190000057220459,6.175000190734863 -0.8420000076293945,-1.2599999904632568 -0.8420000076293945,-1.2599999904632568 C-0.5189999938011169,-2.2809998989105225 -0.1289999932050705,-3.828000068664551 -0.1289999932050705,-3.828000068664551 C-0.1289999932050705,-3.828000068664551 -0.08100000023841858,-3.8269999027252197 -0.08100000023841858,-3.8269999027252197 C-0.08100000023841858,-3.8269999027252197 0.17800000309944153,-2.256999969482422 0.4300000071525574,-1.215000033378601 C0.4300000071525574,-1.215000033378601 2.2300000190734863,6.363999843597412 2.2300000190734863,6.363999843597412 C2.2300000190734863,6.363999843597412 4.2210001945495605,6.433000087738037 4.2210001945495605,6.433000087738037 C4.2210001945495605,6.433000087738037 8.706000328063965,-5.826000213623047 8.706000328063965,-5.826000213623047 C8.706000328063965,-5.826000213623047 6.692999839782715,-5.895999908447266 6.692999839782715,-5.895999908447266 C6.692999839782715,-5.895999908447266 4.122000217437744,1.6749999523162842 4.122000217437744,1.6749999523162842 C3.7750000953674316,2.696000099182129 3.3350000381469727,4.313000202178955 3.3350000381469727,4.313000202178955 C3.3350000381469727,4.313000202178955 3.2860000133514404,4.310999870300293 3.2860000133514404,4.310999870300293 C3.2860000133514404,4.310999870300293 3.006999969482422,2.693000078201294 2.7790000438690186,1.6759999990463257 C2.7790000438690186,1.6759999990463257 1.031999945640564,-6.0929999351501465 1.031999945640564,-6.0929999351501465 C1.031999945640564,-6.0929999351501465 -1.0080000162124634,-6.164000034332275 -1.0080000162124634,-6.164000034332275 C-1.0080000162124634,-6.164000034332275 -3.36299991607666,1.4620000123977661 -3.36299991607666,1.4620000123977661 C-3.6610000133514404,2.437000036239624 -4.077000141143799,4.054999828338623 -4.077000141143799,4.054999828338623 C-4.077000141143799,4.054999828338623 -4.125,4.052999973297119 -4.125,4.052999973297119 C-4.125,4.052999973297119 -4.452000141143799,2.4089999198913574 -4.703999996185303,1.3680000305175781 C-4.703999996185303,1.3680000305175781 -6.619999885559082,-6.360000133514404 -6.619999885559082,-6.360000133514404 C-6.619999885559082,-6.360000133514404 -8.706999778747559,-6.433000087738037 -8.706999778747559,-6.433000087738037 C-8.706999778747559,-6.433000087738037 -5.203999996185303,6.105000019073486 -5.203999996185303,6.105000019073486z"/></g><g opacity="1" transform="matrix(1,0,0,1,135.60899353027344,47.41400146484375)"><path fill="rgb(24,24,23)" fill-opacity="1" d=" M3.9670000076293945,7.046000003814697 C4.460000038146973,7.150000095367432 4.784999847412109,7.120999813079834 5.039999961853027,7.077000141143799 C5.039999961853027,7.077000141143799 5.334000110626221,5.690999984741211 5.334000110626221,5.690999984741211 C5.334000110626221,5.690999984741211 5.263999938964844,5.676000118255615 5.263999938964844,5.676000118255615 C4.1579999923706055,5.686999797821045 4.038000106811523,5.0970001220703125 4.247000217437744,4.111000061035156 C4.247000217437744,4.111000061035156 5.473999977111816,-1.6629999876022339 5.473999977111816,-1.6629999876022339 C6.086999893188477,-4.551000118255615 4.389999866485596,-5.916999816894531 1.8070000410079956,-6.466000080108643 C-1.409000039100647,-7.14900016784668 -3.3320000171661377,-5.7170000076293945 -3.9010000228881836,-3.384999990463257 C-3.9010000228881836,-3.384999990463257 -2.069999933242798,-2.996999979019165 -2.069999933242798,-2.996999979019165 C-1.6109999418258667,-4.813000202178955 -0.4449999928474426,-5.447999954223633 1.5269999504089355,-5.0289998054504395 C3.2639999389648438,-4.659999847412109 4.085000038146973,-3.6760001182556152 3.7960000038146973,-2.313999891281128 C3.5169999599456787,-0.9990000128746033 2.2850000858306885,-1.0889999866485596 0.515999972820282,-1.1950000524520874 C-2.611999988555908,-1.36899995803833 -4.989999771118164,-1.2610000371932983 -5.598999977111816,1.6030000448226929 C-6.086999893188477,3.9040000438690186 -4.508999824523926,5.368000030517578 -2.2079999446868896,5.85699987411499 C-0.14300000667572021,6.296000003814697 1.3109999895095825,5.572999954223633 2.23799991607666,4.788000106811523 C2.23799991607666,4.788000106811523 2.26200008392334,4.794000148773193 2.26200008392334,4.794000148773193 C2.184999942779541,6.078000068664551 2.7230000495910645,6.781000137329102 3.9670000076293945,7.046000003814697z M-1.4769999980926514,4.489999771118164 C-2.7209999561309814,4.22599983215332 -3.9140000343322754,3.6040000915527344 -3.569999933242798,1.9839999675750732 C-3.190999984741211,0.20000000298023224 -1.5950000286102295,0.19599999487400055 0.38100001215934753,0.24699999392032623 C1.4539999961853027,0.27900001406669617 2.621999979019165,0.20900000631809235 3.3410000801086426,-0.054999999701976776 C3.3410000801086426,-0.054999999701976776 2.9019999504089355,2.009999990463257 2.9019999504089355,2.009999990463257 C2.6029999256134033,3.4179999828338623 1.059000015258789,5.0279998779296875 -1.4769999980926514,4.489999771118164z"/></g><g opacity="1" transform="matrix(1,0,0,1,147.5330047607422,50.691001892089844)"><path fill="rgb(24,24,23)" fill-opacity="1" d=" M-1.6890000104904175,6.209000110626221 C0.9950000047683716,7.185999870300293 3.3469998836517334,6.689000129699707 4.199999809265137,4.3429999351501465 C5.177000045776367,1.659999966621399 3.4040000438690186,0.4269999861717224 1.2309999465942383,-0.9010000228881836 C-0.628000020980835,-2.0380001068115234 -1.6649999618530273,-2.696000099182129 -1.2059999704360962,-3.9590001106262207 C-0.8690000176429749,-4.883999824523926 0.07800000160932541,-5.381999969482422 1.746999979019165,-4.77400016784668 C3.4839999675750732,-4.142000198364258 4.072000026702881,-3.1619999408721924 3.694000005722046,-1.562000036239624 C3.694000005722046,-1.562000036239624 5.565999984741211,-0.8809999823570251 5.565999984741211,-0.8809999823570251 C6.124000072479248,-3.256999969482422 5.203999996185303,-5.150000095367432 2.318000078201294,-6.201000213623047 C-0.3880000114440918,-7.185999870300293 -2.3369998931884766,-6.465000152587891 -3.0429999828338623,-4.526000022888184 C-3.9700000286102295,-1.9769999980926514 -2.0910000801086426,-0.7570000290870667 0.03700000047683716,0.5540000200271606 C2.0160000324249268,1.784999966621399 2.7939999103546143,2.4519999027252197 2.318000078201294,3.759999990463257 C1.9240000247955322,4.8429999351501465 0.8309999704360962,5.389999866485596 -1.0859999656677246,4.691999912261963 C-2.822000026702881,4.059999942779541 -3.9700000286102295,3.003000020980835 -3.4790000915527344,0.8830000162124634 C-3.4790000915527344,0.8830000162124634 -5.35099983215332,0.20200000703334808 -5.35099983215332,0.20200000703334808 C-6.123000144958496,2.884000062942505 -4.892000198364258,5.043000221252441 -1.6890000104904175,6.209000110626221z"/></g><g opacity="1" transform="matrix(1,0,0,1,164.11199951171875,58.46200180053711)"><path fill="rgb(24,24,23)" fill-opacity="1" d=" M-3.265000104904175,5.7769999504089355 C-0.875,7.250999927520752 1.5740000009536743,6.985000133514404 3.4619998931884766,5.019999980926514 C3.4619998931884766,5.019999980926514 1.8480000495910645,4.0229997634887695 1.8480000495910645,4.0229997634887695 C0.5989999771118164,5.22599983215332 -0.8759999871253967,5.331999778747559 -2.4079999923706055,4.38700008392334 C-4.5329999923706055,3.0769999027252197 -4.689000129699707,0.7260000109672546 -3.489000082015991,-1.4950000047683716 C-3.489000082015991,-1.4950000047683716 4.682000160217285,3.5439999103546143 4.682000160217285,3.5439999103546143 C6.835999965667725,0.050999999046325684 6.6529998779296875,-3.446000099182129 3.4860000610351562,-5.3979997634887695 C0.4830000102519989,-7.25 -3.055000066757202,-5.993000030517578 -4.945000171661377,-2.927999973297119 C-6.835000038146973,0.13600000739097595 -6.492000102996826,3.7869999408721924 -3.265000104904175,5.7769999504089355z M2.680000066757202,-4.0920000076293945 C4.579999923706055,-2.9200000762939453 4.86899995803833,-0.9649999737739563 3.6730000972747803,1.2020000219345093 C3.6730000972747803,1.2020000219345093 -2.680000066757202,-2.7170000076293945 -2.680000066757202,-2.7170000076293945 C-1.25,-4.486000061035156 0.718999981880188,-5.301000118255615 2.680000066757202,-4.0920000076293945z"/></g><g opacity="1" transform="matrix(1,0,0,1,174.3520050048828,67.00399780273438)"><path fill="rgb(24,24,23)" fill-opacity="1" d=" M0.03500000014901161,7.26200008392334 C0.41999998688697815,7.585999965667725 0.7200000286102295,7.7129998207092285 0.9649999737739563,7.794000148773193 C0.9649999737739563,7.794000148773193 1.878000020980835,6.710000038146973 1.878000020980835,6.710000038146973 C1.878000020980835,6.710000038146973 1.8229999542236328,6.663000106811523 1.8229999542236328,6.663000106811523 C0.8410000205039978,6.1519999504089355 1.0119999647140503,5.574999809265137 1.6610000133514404,4.802999973297119 C1.6610000133514404,4.802999973297119 5.460999965667725,0.2849999964237213 5.460999965667725,0.2849999964237213 C7.361000061035156,-1.975000023841858 6.505000114440918,-3.9790000915527344 4.484000205993652,-5.677999973297119 C1.9670000076293945,-7.793000221252441 -0.40400001406669617,-7.435999870300293 -2.003000020980835,-5.644999980926514 C-2.003000020980835,-5.644999980926514 -0.5699999928474426,-4.440000057220459 -0.5699999928474426,-4.440000057220459 C0.6899999976158142,-5.826000213623047 2.0179998874664307,-5.839000225067139 3.561000108718872,-4.541999816894531 C4.921000003814697,-3.3989999294281006 5.182000160217285,-2.1440000534057617 4.285999774932861,-1.0779999494552612 C3.4210000038146973,-0.05000000074505806 2.377000093460083,-0.7089999914169312 0.8659999966621399,-1.6339999437332153 C-1.812999963760376,-3.259000062942505 -3.9630000591278076,-4.2829999923706055 -5.8480000495910645,-2.0420000553131104 C-7.361000061035156,-0.24199999868869781 -6.656000137329102,1.7929999828338623 -4.855999946594238,3.306999921798706 C-3.239000082015991,4.665999889373779 -1.6169999837875366,4.711999893188477 -0.4300000071525574,4.455999851226807 C-0.4300000071525574,4.455999851226807 -0.41100001335144043,4.4710001945495605 -0.41100001335144043,4.4710001945495605 C-1.0829999446868896,5.568999767303467 -0.9390000104904175,6.442999839782715 0.03500000014901161,7.26200008392334z M-3.566999912261963,2.444999933242798 C-4.540999889373779,1.6260000467300415 -5.301000118255615,0.5170000195503235 -4.236000061035156,-0.7509999871253967 C-3.062000036239624,-2.1470000743865967 -1.6519999504089355,-1.3990000486373901 0.06800000369548798,-0.42399999499320984 C1,0.10899999737739563 2.063999891281128,0.5960000157356262 2.822999954223633,0.7009999752044678 C2.822999954223633,0.7009999752044678 1.4630000591278076,2.315999984741211 1.4630000591278076,2.315999984741211 C0.5370000004768372,3.4189999103546143 -1.5829999446868896,4.11299991607666 -3.566999912261963,2.444999933242798z"/></g><g opacity="1" transform="matrix(1,0,0,1,183.29600524902344,75.0270004272461)"><path fill="rgb(24,24,23)" fill-opacity="1" d=" M-4.547999858856201,4.341000080108643 C-2.6429998874664307,6.468999862670898 -0.33399999141693115,7.139999866485596 1.524999976158142,5.473999977111816 C3.6530001163482666,3.569000005722046 2.6710000038146973,1.6449999809265137 1.38100004196167,-0.550000011920929 C0.27799999713897705,-2.430000066757202 -0.32600000500679016,-3.5 0.675000011920929,-4.395999908447266 C1.4079999923706055,-5.052999973297119 2.4779999256134033,-5.045000076293945 3.6630001068115234,-3.7219998836517334 C4.895999908447266,-2.3450000286102295 4.952000141143799,-1.2039999961853027 3.865000009536743,0.02800000086426735 C3.865000009536743,0.02800000086426735 5.193999767303467,1.5119999647140503 5.193999767303467,1.5119999647140503 C6.807000160217285,-0.3199999928474426 6.888999938964844,-2.4230000972747803 4.839000225067139,-4.710999965667725 C2.9179999828338623,-6.855999946594238 0.8600000143051147,-7.139999866485596 -0.6779999732971191,-5.763000011444092 C-2.697999954223633,-3.953000068664551 -1.6160000562667847,-1.9900000095367432 -0.3580000102519989,0.17000000178813934 C0.8050000071525574,2.187999963760376 1.1779999732971191,3.1440000534057617 0.14100000262260437,4.072000026702881 C-0.7170000076293945,4.841000080108643 -1.9390000104904175,4.808000087738037 -3.299999952316284,3.2880001068115234 C-4.5329999923706055,1.9110000133514404 -5.046999931335449,0.43799999356269836 -3.614000082015991,-1.1990000009536743 C-3.614000082015991,-1.1990000009536743 -4.942999839782715,-2.683000087738037 -4.942999839782715,-2.683000087738037 C-6.888999938964844,-0.6830000281333923 -6.822000026702881,1.8020000457763672 -4.547999858856201,4.341000080108643z"/></g><g opacity="1" transform="matrix(1,0,0,1,189.38299560546875,82.4219970703125)"><path fill="rgb(24,24,23)" fill-opacity="1" d=" M-8.91100025177002,4.959000110626221 C-8.059000015258789,6.208000183105469 -7.081999778747559,6.703999996185303 -4.392000198364258,6.089000225067139 C-4.392000198364258,6.089000225067139 9.680000305175781,2.9110000133514404 9.680000305175781,2.9110000133514404 C9.680000305175781,2.9110000133514404 8.515999794006348,1.2059999704360962 8.515999794006348,1.2059999704360962 C8.515999794006348,1.2059999704360962 0.5360000133514404,3.2209999561309814 0.5360000133514404,3.2209999561309814 C-0.5329999923706055,3.484999895095825 -1.9259999990463257,3.9130001068115234 -1.9259999990463257,3.9130001068115234 C-1.9259999990463257,3.9130001068115234 -1.9529999494552612,3.872999906539917 -1.9529999494552612,3.872999906539917 C-1.9529999494552612,3.872999906539917 -1.059999942779541,2.7119998931884766 -0.42399999499320984,1.812999963760376 C-0.42399999499320984,1.812999963760376 4.309999942779541,-4.960000038146973 4.309999942779541,-4.960000038146973 C4.309999942779541,-4.960000038146973 3.119999885559082,-6.703999996185303 3.119999885559082,-6.703999996185303 C3.119999885559082,-6.703999996185303 -4.10099983215332,4.089000225067139 -4.10099983215332,4.089000225067139 C-4.10099983215332,4.089000225067139 -5.381999969482422,4.381999969482422 -5.381999969482422,4.381999969482422 C-6.644000053405762,4.6620001792907715 -7.2129998207092285,4.381999969482422 -7.672999858856201,3.7079999446868896 C-8.038000106811523,3.171999931335449 -8.168999671936035,2.7679998874664307 -8.199000358581543,2.4679999351501465 C-8.199000358581543,2.4679999351501465 -8.253000259399414,2.3889999389648438 -8.253000259399414,2.3889999389648438 C-8.253000259399414,2.3889999389648438 -9.680000305175781,3.36299991607666 -9.680000305175781,3.36299991607666 C-9.560999870300293,3.9210000038146973 -9.329999923706055,4.343999862670898 -8.91100025177002,4.959000110626221z"/></g></g><g transform="matrix(1,0,0,1,0,0)" opacity="1" style="display: block;"><g opacity="1" transform="matrix(1,0,0,1,32.17499923706055,168.9250030517578)"><path fill="rgb(24,24,23)" fill-opacity="1" d=" M-5.995999813079834,2.8010001182556152 C-4.922999858856201,5.395999908447266 -2.7829999923706055,6.613999843597412 -0.10100000351667404,6.129000186920166 C-0.10100000351667404,6.129000186920166 -0.8259999752044678,4.376999855041504 -0.8259999752044678,4.376999855041504 C-2.5429999828338623,4.61899995803833 -3.799999952316284,3.8410000801086426 -4.48799991607666,2.177000045776367 C-5.441999912261963,-0.1289999932050705 -4.190000057220459,-2.127000093460083 -1.9160000085830688,-3.2230000495910645 C-1.9160000085830688,-3.2230000495910645 1.7519999742507935,5.6479997634887695 1.7519999742507935,5.6479997634887695 C5.544000148773193,4.079999923706055 7.445000171661377,1.1390000581741333 6.02400016784668,-2.2990000247955322 C4.676000118255615,-5.559000015258789 1.0709999799728394,-6.613999843597412 -2.25600004196167,-5.23799991607666 C-5.583000183105469,-3.86299991607666 -7.445000171661377,-0.7039999961853027 -5.995999813079834,2.8010001182556152z M4.604000091552734,-1.7120000123977661 C5.456999778747559,0.35100001096725464 4.546000003814697,2.1040000915527344 2.306999921798706,3.1600000858306885 C2.306999921798706,3.1600000858306885 -0.5450000166893005,-3.73799991607666 -0.5450000166893005,-3.73799991607666 C1.649999976158142,-4.334000110626221 3.7239999771118164,-3.8410000801086426 4.604000091552734,-1.7120000123977661z"/></g><g opacity="1" transform="matrix(1,0,0,1,38.888999938964844,178.4709930419922)"><path fill="rgb(24,24,23)" fill-opacity="1" d=" M-7.0269999504089355,4.078999996185303 C-7.0269999504089355,4.078999996185303 -5.934999942779541,5.942999839782715 -5.934999942779541,5.942999839782715 C-5.934999942779541,5.942999839782715 7.0269999504089355,3.5199999809265137 7.0269999504089355,3.5199999809265137 C7.0269999504089355,3.5199999809265137 6.007999897003174,1.781000018119812 6.007999897003174,1.781000018119812 C6.007999897003174,1.781000018119812 -2.1059999465942383,3.505000114440918 -2.1059999465942383,3.505000114440918 C-3.2200000286102295,3.740000009536743 -4.776000022888184,4.124000072479248 -4.776000022888184,4.124000072479248 C-4.776000022888184,4.124000072479248 -4.800000190734863,4.081999778747559 -4.800000190734863,4.081999778747559 C-4.800000190734863,4.081999778747559 -3.7260000705718994,2.9240000247955322 -2.9560000896453857,2.055000066757202 C-2.9560000896453857,2.055000066757202 2.5369999408721924,-4.140999794006348 2.5369999408721924,-4.140999794006348 C2.5369999408721924,-4.140999794006348 1.4809999465942383,-5.941999912261963 1.4809999465942383,-5.941999912261963 C1.4809999465942383,-5.941999912261963 -7.0269999504089355,4.078999996185303 -7.0269999504089355,4.078999996185303z"/></g><g opacity="1" transform="matrix(1,0,0,1,45.08700180053711,191.0780029296875)"><path fill="rgb(24,24,23)" fill-opacity="1" d=" M-5.056000232696533,4.105000019073486 C-3.311000108718872,6.304999828338623 -0.9190000295639038,6.888999938964844 1.5269999504089355,5.685999870300293 C1.5269999504089355,5.685999870300293 0.3490000069141388,4.199999809265137 0.3490000069141388,4.199999809265137 C-1.2359999418258667,4.90500020980835 -2.6589999198913574,4.500999927520752 -3.7769999504089355,3.0910000801086426 C-5.328000068664551,1.1349999904632568 -4.672999858856201,-1.1299999952316284 -2.7869999408721924,-2.808000087738037 C-2.7869999408721924,-2.808000087738037 3.1760001182556152,4.715000152587891 3.1760001182556152,4.715000152587891 C6.392000198364258,2.1649999618530273 7.4120001792907715,-1.184999942779541 5.10099983215332,-4.099999904632568 C2.9089999198913574,-6.864999771118164 -0.847000002861023,-6.888999938964844 -3.6679999828338623,-4.6529998779296875 C-6.488999843597412,-2.4159998893737793 -7.4120001792907715,1.1330000162124634 -5.056000232696533,4.105000019073486z M3.8970000743865967,-3.1459999084472656 C5.283999919891357,-1.3969999551773071 4.888999938964844,0.5389999747276306 3.0260000228881836,2.1689999103546143 C3.0260000228881836,2.1689999103546143 -1.6100000143051147,-3.680000066757202 -1.6100000143051147,-3.680000066757202 C0.335999995470047,-4.855999946594238 2.4660000801086426,-4.951000213623047 3.8970000743865967,-3.1459999084472656z"/></g><g opacity="1" transform="matrix(1,0,0,1,52.85599899291992,198.02499389648438)"><path fill="rgb(24,24,23)" fill-opacity="1" d=" M3.427999973297119,-3.740000009536743 C3.427999973297119,-3.740000009536743 2.0420000553131104,-5.104000091552734 2.0420000553131104,-5.104000091552734 C2.0420000553131104,-5.104000091552734 -6.660999774932861,3.740000009536743 -6.660999774932861,3.740000009536743 C-6.660999774932861,3.740000009536743 -5.275000095367432,5.104000091552734 -5.275000095367432,5.104000091552734 C-5.275000095367432,5.104000091552734 -0.4440000057220459,0.1940000057220459 -0.4440000057220459,0.1940000057220459 C1.1890000104904175,-1.465000033378601 3.3970000743865967,-1.312999963760376 4.764999866485596,0.03400000184774399 C5.039000034332275,0.30300000309944153 5.158999919891357,0.45500001311302185 5.296999931335449,0.7250000238418579 C5.296999931335449,0.7250000238418579 5.3480000495910645,0.7760000228881836 5.3480000495910645,0.7760000228881836 C5.3480000495910645,0.7760000228881836 6.660999774932861,-0.5590000152587891 6.660999774932861,-0.5590000152587891 C6.557000160217285,-0.7950000166893005 6.453999996185303,-0.9639999866485596 6.197999954223633,-1.2170000076293945 C5.017000198364258,-2.378000020980835 3.38700008392334,-2.569000005722046 2.015000104904175,-2.234999895095825 C2.015000104904175,-2.234999895095825 1.9800000190734863,-2.2690000534057617 1.9800000190734863,-2.2690000534057617 C1.9800000190734863,-2.2690000534057617 3.427999973297119,-3.740000009536743 3.427999973297119,-3.740000009536743z"/></g><g opacity="1" transform="matrix(1,0,0,1,59.91299819946289,205.86099243164062)"><path fill="rgb(24,24,23)" fill-opacity="1" d=" M-7.919000148773193,6.849999904632568 C-6.723999977111816,7.7769999504089355 -5.640999794006348,7.947999954223633 -3.2709999084472656,6.535999774932861 C-3.2709999084472656,6.535999774932861 9.142000198364258,-0.8159999847412109 9.142000198364258,-0.8159999847412109 C9.142000198364258,-0.8159999847412109 7.510000228881836,-2.0810000896453857 7.510000228881836,-2.0810000896453857 C7.510000228881836,-2.0810000896453857 0.5360000133514404,2.2920000553131104 0.5360000133514404,2.2920000553131104 C-0.4000000059604645,2.871999979019165 -1.593000054359436,3.7070000171661377 -1.593000054359436,3.7070000171661377 C-1.593000054359436,3.7070000171661377 -1.6319999694824219,3.677000045776367 -1.6319999694824219,3.677000045776367 C-1.6319999694824219,3.677000045776367 -1.1390000581741333,2.2980000972747803 -0.8109999895095825,1.246999979019165 C-0.8109999895095825,1.246999979019165 1.6119999885559082,-6.65500020980835 1.6119999885559082,-6.65500020980835 C1.6119999885559082,-6.65500020980835 -0.05700000002980232,-7.948999881744385 -0.05700000002980232,-7.948999881744385 C-0.05700000002980232,-7.948999881744385 -3.6089999675750732,4.543000221252441 -3.6089999675750732,4.543000221252441 C-3.6089999675750732,4.543000221252441 -4.73799991607666,5.216000080108643 -4.73799991607666,5.216000080108643 C-5.8520002365112305,5.870999813079834 -6.480999946594238,5.7789998054504395 -7.125999927520752,5.2789998054504395 C-7.638000011444092,4.881999969482422 -7.88700008392334,4.538000106811523 -8.006999969482422,4.26200008392334 C-8.006999969482422,4.26200008392334 -8.083000183105469,4.203000068664551 -8.083000183105469,4.203000068664551 C-8.083000183105469,4.203000068664551 -9.140999794006348,5.567999839782715 -9.140999794006348,5.567999839782715 C-8.855999946594238,6.061999797821045 -8.506999969482422,6.394000053405762 -7.919000148773193,6.849999904632568z"/></g><g opacity="1" transform="matrix(1,0,0,1,71.64399719238281,213.7239990234375)"><path fill="rgb(24,24,23)" fill-opacity="1" d=" M-3.2179999351501465,5.666999816894531 C0.014999999664723873,7.506999969482422 3.4240000247955322,6.078000068664551 5.203999996185303,2.9489998817443848 C6.985000133514404,-0.18000000715255737 6.4720001220703125,-3.8410000801086426 3.239000082015991,-5.681000232696533 C0.026000000536441803,-7.507999897003174 -3.4240000247955322,-6.103000164031982 -5.204999923706055,-2.9739999771118164 C-6.985000133514404,0.1550000011920929 -6.431000232696533,3.8389999866485596 -3.2179999351501465,5.666999816894531z M-2.4110000133514404,4.249000072479248 C-4.705999851226807,2.943000078201294 -4.826000213623047,0.3889999985694885 -3.4730000495910645,-1.9889999628067017 C-2.119999885559082,-4.367000102996826 0.14900000393390656,-5.589000225067139 2.443000078201294,-4.2829999923706055 C4.73799991607666,-2.9769999980926514 4.826000213623047,-0.41499999165534973 3.4730000495910645,1.9630000591278076 C2.119999885559082,4.341000080108643 -0.11599999666213989,5.553999900817871 -2.4110000133514404,4.249000072479248z"/></g><g opacity="1" transform="matrix(1,0,0,1,83.93399810791016,219.59100341796875)"><path fill="rgb(24,24,23)" fill-opacity="1" d=" M-0.46299999952316284,-6.9070000648498535 C-0.46299999952316284,-6.9070000648498535 -2.2769999504089355,-7.60699987411499 -2.2769999504089355,-7.60699987411499 C-2.2769999504089355,-7.60699987411499 -6.74399995803833,3.9690001010894775 -6.74399995803833,3.9690001010894775 C-6.74399995803833,3.9690001010894775 -4.929999828338623,4.669000148773193 -4.929999828338623,4.669000148773193 C-4.929999828338623,4.669000148773193 -2.181999921798706,-2.4509999752044678 -2.181999921798706,-2.4509999752044678 C-1.4479999542236328,-4.354000091552734 0.3970000147819519,-5.135000228881836 2.2330000400543213,-4.426000118255615 C3.867000102996826,-3.7950000762939453 4.52400016784668,-2.563999891281128 3.944999933242798,-1.0640000104904175 C3.944999933242798,-1.0640000104904175 0.8690000176429749,6.9070000648498535 0.8690000176429749,6.9070000648498535 C0.8690000176429749,6.9070000648498535 2.683000087738037,7.60699987411499 2.683000087738037,7.60699987411499 C2.683000087738037,7.60699987411499 5.818999767303467,-0.5210000276565552 5.818999767303467,-0.5210000276565552 C6.74399995803833,-2.9170000553131104 5.776000022888184,-4.808000087738037 3.3580000400543213,-5.741000175476074 C1.6779999732971191,-6.388999938964844 0.2460000067949295,-6.144999980926514 -1.00600004196167,-5.367000102996826 C-1.00600004196167,-5.367000102996826 -1.0509999990463257,-5.383999824523926 -1.0509999990463257,-5.383999824523926 C-1.0509999990463257,-5.383999824523926 -0.46299999952316284,-6.9070000648498535 -0.46299999952316284,-6.9070000648498535z"/></g><g opacity="1" transform="matrix(1,0,0,1,96.86199951171875,223.40199279785156)"><path fill="rgb(24,24,23)" fill-opacity="1" d=" M-1.24399995803833,6.460999965667725 C1.4950000047683716,7.078999996185303 3.7249999046325684,6.0320000648498535 4.873000144958496,3.559999942779541 C4.873000144958496,3.559999942779541 3.0239999294281006,3.1429998874664307 3.0239999294281006,3.1429998874664307 C2.2320001125335693,4.685999870300293 0.871999979019165,5.263999938964844 -0.8840000033378601,4.868000030517578 C-3.319000005722046,4.317999839782715 -4.230999946594238,2.1449999809265137 -3.815999984741211,-0.3449999988079071 C-3.815999984741211,-0.3449999988079071 5.547999858856201,1.7690000534057617 5.547999858856201,1.7690000534057617 C6.452000141143799,-2.2339999675750732 5.14300012588501,-5.48199987411499 1.5140000581741333,-6.301000118255615 C-1.9270000457763672,-7.078000068664551 -4.866000175476074,-4.741000175476074 -5.658999919891357,-1.2289999723434448 C-6.452000141143799,2.2820000648498535 -4.941999912261963,5.625999927520752 -1.24399995803833,6.460999965667725z M1.1759999990463257,-4.802999973297119 C3.3529999256134033,-4.311999797821045 4.261000156402588,-2.556999921798706 3.8340001106262207,-0.11900000274181366 C3.8340001106262207,-0.11900000274181366 -3.447000026702881,-1.7619999647140503 -3.447000026702881,-1.7619999647140503 C-2.6689999103546143,-3.9000000953674316 -1.0709999799728394,-5.309999942779541 1.1759999990463257,-4.802999973297119z"/></g><g opacity="1" transform="matrix(1,0,0,1,118.49199676513672,225.6230010986328)"><path fill="rgb(24,24,23)" fill-opacity="1" d=" M-4.572999954223633,6.313000202178955 C-4.572999954223633,6.313000202178955 -2.556999921798706,6.28000020980835 -2.556999921798706,6.28000020980835 C-2.556999921798706,6.28000020980835 -0.5920000076293945,-1.2649999856948853 -0.5920000076293945,-1.2649999856948853 C-0.32100000977516174,-2.3010001182556152 -0.009999999776482582,-3.867000102996826 -0.009999999776482582,-3.867000102996826 C-0.009999999776482582,-3.867000102996826 0.03799999877810478,-3.867000102996826 0.03799999877810478,-3.867000102996826 C0.03799999877810478,-3.867000102996826 0.375,-2.312999963760376 0.6800000071525574,-1.284999966621399 C0.6800000071525574,-1.284999966621399 2.865999937057495,6.191999912261963 2.865999937057495,6.191999912261963 C2.865999937057495,6.191999912261963 4.857999801635742,6.158999919891357 4.857999801635742,6.158999919891357 C4.857999801635742,6.158999919891357 8.711000442504883,-6.313000202178955 8.711000442504883,-6.313000202178955 C8.711000442504883,-6.313000202178955 6.695000171661377,-6.28000020980835 6.695000171661377,-6.28000020980835 C6.695000171661377,-6.28000020980835 4.515999794006348,1.4119999408721924 4.515999794006348,1.4119999408721924 C4.2210001945495605,2.4489998817443848 3.864000082015991,4.086999893188477 3.864000082015991,4.086999893188477 C3.864000082015991,4.086999893188477 3.815999984741211,4.0879998207092285 3.815999984741211,4.0879998207092285 C3.815999984741211,4.0879998207092285 3.4539999961853027,2.4860000610351562 3.1730000972747803,1.4819999933242798 C3.1730000972747803,1.4819999933242798 1.031999945640564,-6.188000202178955 1.031999945640564,-6.188000202178955 C1.031999945640564,-6.188000202178955 -1.0080000162124634,-6.15500020980835 -1.0080000162124634,-6.15500020980835 C-1.0080000162124634,-6.15500020980835 -2.9700000286102295,1.5829999446868896 -2.9700000286102295,1.5829999446868896 C-3.2179999351501465,2.571000099182129 -3.5510001182556152,4.208000183105469 -3.5510001182556152,4.208000183105469 C-3.5510001182556152,4.208000183105469 -3.5989999771118164,4.209000110626221 -3.5989999771118164,4.209000110626221 C-3.5989999771118164,4.209000110626221 -4.010000228881836,2.5840001106262207 -4.314000129699707,1.5570000410079956 C-4.314000129699707,1.5570000410079956 -6.623000144958496,-6.063000202178955 -6.623000144958496,-6.063000202178955 C-6.623000144958496,-6.063000202178955 -8.711000442504883,-6.0289998054504395 -8.711000442504883,-6.0289998054504395 C-8.711000442504883,-6.0289998054504395 -4.572999954223633,6.313000202178955 -4.572999954223633,6.313000202178955z"/></g><g opacity="1" transform="matrix(1,0,0,1,134.81700134277344,223.9040069580078)"><path fill="rgb(24,24,23)" fill-opacity="1" d=" M1.2799999713897705,6.406000137329102 C4.928999900817871,5.684000015258789 6.572999954223633,2.372999906539917 5.874000072479248,-1.159000039100647 C5.175000190734863,-4.690000057220459 2.3929998874664307,-7.124000072479248 -1.25600004196167,-6.4019999504089355 C-4.881999969482422,-5.684000015258789 -6.572999954223633,-2.365000009536743 -5.874000072479248,1.1670000553131104 C-5.175000190734863,4.697999954223633 -2.3459999561309814,7.124000072479248 1.2799999713897705,6.406000137329102z M0.9629999995231628,4.804999828338623 C-1.6269999742507935,5.317999839782715 -3.3889999389648438,3.4649999141693115 -3.9200000762939453,0.781000018119812 C-4.451000213623047,-1.902999997138977 -3.5339999198913574,-4.310999870300293 -0.9440000057220459,-4.823999881744385 C1.6460000276565552,-5.335999965667725 3.3889999389648438,-3.4549999237060547 3.9200000762939453,-0.7710000276565552 C4.451000213623047,1.9129999876022339 3.552000045776367,4.293000221252441 0.9629999995231628,4.804999828338623z"/></g><g opacity="1" transform="matrix(1,0,0,1,148.37100219726562,219.9530029296875)"><path fill="rgb(24,24,23)" fill-opacity="1" d=" M6.764999866485596,4.298999786376953 C6.764999866485596,4.298999786376953 2.559999942779541,-7.375 2.559999942779541,-7.375 C2.559999942779541,-7.375 0.7310000061988831,-6.716000080108643 0.7310000061988831,-6.716000080108643 C0.7310000061988831,-6.716000080108643 3.318000078201294,0.46399998664855957 3.318000078201294,0.46399998664855957 C3.984999895095825,2.315999984741211 3.2920000553131104,4.146999835968018 1.440999984741211,4.814000129699707 C-0.20800000429153442,5.4079999923706055 -1.496000051498413,4.876999855041504 -2.0409998893737793,3.364000082015991 C-2.0409998893737793,3.364000082015991 -4.935999870300293,-4.673999786376953 -4.935999870300293,-4.673999786376953 C-4.935999870300293,-4.673999786376953 -6.764999866485596,-4.014999866485596 -6.764999866485596,-4.014999866485596 C-6.764999866485596,-4.014999866485596 -3.8529999256134033,4.067999839782715 -3.8529999256134033,4.067999839782715 C-2.9830000400543213,6.484000205993652 -0.9269999861717224,7.375999927520752 1.465999960899353,6.513999938964844 C3.1600000858306885,5.9039998054504395 3.884999990463257,4.801000118255615 4.314000129699707,3.371000051498413 C4.314000129699707,3.371000051498413 4.359000205993652,3.3550000190734863 4.359000205993652,3.3550000190734863 C4.359000205993652,3.3550000190734863 4.935999870300293,4.958000183105469 4.935999870300293,4.958000183105469 C4.935999870300293,4.958000183105469 6.764999866485596,4.298999786376953 6.764999866485596,4.298999786376953z"/></g><g opacity="1" transform="matrix(1,0,0,1,155.8260040283203,214.3780059814453)"><path fill="rgb(24,24,23)" fill-opacity="1" d=" M2.8239998817443848,8.15999984741211 C2.8239998817443848,8.15999984741211 4.577000141143799,7.322000026702881 4.577000141143799,7.322000026702881 C4.577000141143799,7.322000026702881 -2.8239998817443848,-8.16100025177002 -2.8239998817443848,-8.16100025177002 C-2.8239998817443848,-8.16100025177002 -4.577000141143799,-7.322000026702881 -4.577000141143799,-7.322000026702881 C-4.577000141143799,-7.322000026702881 2.8239998817443848,8.15999984741211 2.8239998817443848,8.15999984741211z"/></g><g opacity="1" transform="matrix(1,0,0,1,165.60400390625,209.6219940185547)"><path fill="rgb(24,24,23)" fill-opacity="1" d=" M2.750999927520752,8.097000122070312 C4.242000102996826,7.177000045776367 4.86899995803833,6 5.034999847412109,4.486999988555908 C5.034999847412109,4.486999988555908 5.076000213623047,4.461999893188477 5.076000213623047,4.461999893188477 C5.076000213623047,4.461999893188477 5.869999885559082,5.748000144958496 5.869999885559082,5.748000144958496 C5.869999885559082,5.748000144958496 7.5229997634887695,4.7270002365112305 7.5229997634887695,4.7270002365112305 C7.5229997634887695,4.7270002365112305 -1.4900000095367432,-9.875 -1.4900000095367432,-9.875 C-1.4900000095367432,-9.875 -3.1449999809265137,-8.852999687194824 -3.1449999809265137,-8.852999687194824 C-3.1449999809265137,-8.852999687194824 0.27300000190734863,-3.319000005722046 0.27300000190734863,-3.319000005722046 C0.27300000190734863,-3.319000005722046 0.23199999332427979,-3.2939999103546143 0.23199999332427979,-3.2939999103546143 C-1.059999942779541,-3.878000020980835 -2.6570000648498535,-3.9079999923706055 -4.1479997634887695,-2.986999988555908 C-6.76200008392334,-1.3739999532699585 -7.5229997634887695,1.9170000553131104 -5.355000019073486,5.428999900817871 C-3.26200008392334,8.819000244140625 -0.1289999932050705,9.875 2.750999927520752,8.097000122070312z M1.9550000429153442,6.671000003814697 C-0.06700000166893005,7.919000148773193 -2.171999931335449,6.793000221252441 -3.6470000743865967,4.4029998779296875 C-5.110000133514404,2.0339999198913574 -5.197999954223633,-0.3930000066757202 -3.197000026702881,-1.628999948501587 C-1.0110000371932983,-2.9779999256134033 1.2319999933242798,-1.9930000305175781 2.744999885559082,0.4569999873638153 C4.21999979019165,2.8469998836517334 4.302999973297119,5.2210001945495605 1.9550000429153442,6.671000003814697z"/></g><g opacity="1" transform="matrix(1,0,0,1,181.81700134277344,197.23199462890625)"><path fill="rgb(24,24,23)" fill-opacity="1" d=" M3.7339999675750732,7.116000175476074 C4.986000061035156,5.889999866485596 5.3379998207092285,4.604000091552734 5.166999816894531,3.0920000076293945 C5.166999816894531,3.0920000076293945 5.202000141143799,3.058000087738037 5.202000141143799,3.058000087738037 C5.202000141143799,3.058000087738037 6.260000228881836,4.138000011444092 6.260000228881836,4.138000011444092 C6.260000228881836,4.138000011444092 7.6479997634887695,2.7780001163482666 7.6479997634887695,2.7780001163482666 C7.6479997634887695,2.7780001163482666 -4.35699987411499,-9.482999801635742 -4.35699987411499,-9.482999801635742 C-4.35699987411499,-9.482999801635742 -5.747000217437744,-8.123000144958496 -5.747000217437744,-8.123000144958496 C-5.747000217437744,-8.123000144958496 -1.1950000524520874,-3.4749999046325684 -1.1950000524520874,-3.4749999046325684 C-1.1950000524520874,-3.4749999046325684 -1.2300000190734863,-3.441999912261963 -1.2300000190734863,-3.441999912261963 C-2.618000030517578,-3.7279999256134033 -4.184000015258789,-3.4049999713897705 -5.435999870300293,-2.178999900817871 C-7.63100004196167,-0.029999999329447746 -7.6479997634887695,3.3469998836517334 -4.760000228881836,6.296999931335449 C-1.9730000495910645,9.142999649047852 1.315999984741211,9.482999801635742 3.7339999675750732,7.116000175476074z M2.6440000534057617,5.89900016784668 C0.9459999799728394,7.561999797821045 -1.3559999465942383,6.926000118255615 -3.319999933242798,4.920000076293945 C-5.26800012588501,2.930999994277954 -5.888000011444092,0.5820000171661377 -4.208000183105469,-1.062999963760376 C-2.372999906539917,-2.859999895095825 0.03200000151991844,-2.3929998874664307 2.046999931335449,-0.335999995470047 C4.01200008392334,1.6710000038146973 4.616000175476074,3.9679999351501465 2.6440000534057617,5.89900016784668z"/></g><g opacity="1" transform="matrix(1,0,0,1,190.71299743652344,188.51300048828125)"><path fill="rgb(24,24,23)" fill-opacity="1" d=" M5.23799991607666,3.875 C7.453000068664551,0.8859999775886536 6.442999839782715,-2.6689999103546143 3.549999952316284,-4.811999797821045 C0.6570000052452087,-6.954999923706055 -3.0380001068115234,-6.885000228881836 -5.252999782562256,-3.8959999084472656 C-7.453000068664551,-0.9259999990463257 -6.4710001945495605,2.6679999828338623 -3.5789999961853027,4.810999870300293 C-0.6859999895095825,6.953999996185303 3.0380001068115234,6.84499979019165 5.23799991607666,3.875z M3.927000045776367,2.9040000438690186 C2.3559999465942383,5.025000095367432 -0.1940000057220459,4.839000225067139 -2.3929998874664307,3.2100000381469727 C-4.591000080108643,1.5820000171661377 -5.5320000648498535,-0.8180000185966492 -3.9609999656677246,-2.938999891281128 C-2.3889999389648438,-5.059999942779541 0.16599999368190765,-4.840000152587891 2.364000082015991,-3.2119998931884766 C4.563000202178955,-1.5829999446868896 5.499000072479248,0.7829999923706055 3.927000045776367,2.9040000438690186z"/></g><g opacity="1" transform="matrix(1,0,0,1,196.8260040283203,174.0050048828125)"><path fill="rgb(24,24,23)" fill-opacity="1" d=" M7.22599983215332,4.7270002365112305 C7.22599983215332,4.7270002365112305 8.10099983215332,2.990999937057495 8.10099983215332,2.990999937057495 C8.10099983215332,2.990999937057495 -2.9820001125335693,-2.5889999866485596 -2.9820001125335693,-2.5889999866485596 C-2.9820001125335693,-2.5889999866485596 -3.8559999465942383,-0.8529999852180481 -3.8559999465942383,-0.8529999852180481 C-3.8559999465942383,-0.8529999852180481 7.22599983215332,4.7270002365112305 7.22599983215332,4.7270002365112305z M-5.956999778747559,-1.9110000133514404 C-5.956999778747559,-1.9110000133514404 -5.083000183105469,-3.6470000743865967 -5.083000183105469,-3.6470000743865967 C-5.083000183105469,-3.6470000743865967 -7.22599983215332,-4.72599983215332 -7.22599983215332,-4.72599983215332 C-7.22599983215332,-4.72599983215332 -8.10099983215332,-2.990000009536743 -8.10099983215332,-2.990000009536743 C-8.10099983215332,-2.990000009536743 -5.956999778747559,-1.9110000133514404 -5.956999778747559,-1.9110000133514404z"/></g><g opacity="1" transform="matrix(1,0,0,1,200.177001953125,168.15499877929688)"><path fill="rgb(24,24,23)" fill-opacity="1" d=" M-3.930000066757202,2.006999969482422 C-3.930000066757202,2.006999969482422 -3.240999937057495,0.3440000116825104 -3.240999937057495,0.3440000116825104 C-3.240999937057495,0.3440000116825104 4.605000019073486,3.6029999256134033 4.605000019073486,3.6029999256134033 C6.2230000495910645,4.275000095367432 7.263000011444092,3.4600000381469727 7.870999813079834,1.996999979019165 C8.092000007629395,1.465000033378601 8.227999687194824,0.949999988079071 8.3149995803833,0.492000013589859 C8.3149995803833,0.492000013589859 6.763999938964844,-0.15199999511241913 6.763999938964844,-0.15199999511241913 C6.763999938964844,-0.15199999511241913 6.736000061035156,-0.0860000029206276 6.736000061035156,-0.0860000029206276 C6.71999979019165,0.14100000262260437 6.642000198364258,0.5770000219345093 6.494999885559082,0.9309999942779541 C6.190999984741211,1.6629999876022339 5.75,1.9730000495910645 4.952000141143799,1.6419999599456787 C4.952000141143799,1.6419999599456787 -2.494999885559082,-1.4520000219345093 -2.494999885559082,-1.4520000219345093 C-2.494999885559082,-1.4520000219345093 -1.5740000009536743,-3.6679999828338623 -1.5740000009536743,-3.6679999828338623 C-1.5740000009536743,-3.6679999828338623 -3.0360000133514404,-4.276000022888184 -3.0360000133514404,-4.276000022888184 C-3.0360000133514404,-4.276000022888184 -3.9579999446868896,-2.059999942779541 -3.9579999446868896,-2.059999942779541 C-3.9579999446868896,-2.059999942779541 -7.570000171661377,-3.559999942779541 -7.570000171661377,-3.559999942779541 C-7.570000171661377,-3.559999942779541 -8.315999984741211,-1.7640000581741333 -8.315999984741211,-1.7640000581741333 C-8.315999984741211,-1.7640000581741333 -4.703999996185303,-0.2639999985694885 -4.703999996185303,-0.2639999985694885 C-4.703999996185303,-0.2639999985694885 -5.394000053405762,1.3980000019073486 -5.394000053405762,1.3980000019073486 C-5.394000053405762,1.3980000019073486 -3.930000066757202,2.006999969482422 -3.930000066757202,2.006999969482422z"/></g></g><g clip-path="url(#__lottie_element_132)" style="display: none;"><g mask="url(#__lottie_element_139_1)" style="display: none;"><g><g><path/></g></g></g><g mask="url(#__lottie_element_139_1)" style="display: none;"><g><g><path/></g></g></g><g mask="url(#__lottie_element_139_1)" style="display: none;"><g><g><path/></g></g></g><g mask="url(#__lottie_element_139_1)" style="display: none;"><g><g><path/></g></g></g><g mask="url(#__lottie_element_163_1)" style="display: none;"><g><g><path/></g></g></g><g mask="url(#__lottie_element_163_1)" style="display: none;"><g><g><path/></g></g></g><g style="display: none;"><g><path stroke-linecap="butt" stroke-linejoin="miter" fill-opacity="0" stroke-miterlimit="4"/></g></g><g style="display: none;"><g><path stroke-linecap="butt" stroke-linejoin="miter" fill-opacity="0" stroke-miterlimit="4"/></g></g><g style="display: none;"><g><path stroke-linecap="butt" stroke-linejoin="miter" fill-opacity="0" stroke-miterlimit="4"/></g></g><g style="display: none;"><g><path/></g></g><g style="display: none;"><g><path/></g></g><g style="display: none;"><g><path/></g></g><g style="display: none;"><g><path stroke-linecap="butt" stroke-linejoin="miter" fill-opacity="0" stroke-miterlimit="4"/></g></g><g mask="url(#__lottie_element_139_1)" style="display: none;"><g><g><path/></g></g></g></g><g clip-path="url(#__lottie_element_78)" transform="matrix(0.3668000102043152,0,0,0.3668000102043152,47.27519989013672,78.49939727783203)" opacity="1" style="display: block;"><g mask="url(#__lottie_element_85_1)" style="display: block;"><g transform="matrix(1.0499999523162842,0,0,1.0499999523162842,-157.77499389648438,-574.52490234375)" opacity="1"><g opacity="1" transform="matrix(1,0,0,1,328,716.5)"><path fill="rgb(24,24,23)" fill-opacity="1" d=" M-10,-10.5 C-10,-10.5 10,-10.5 10,-10.5 C10,-10.5 10,10.5 10,10.5 C10,10.5 -10,10.5 -10,10.5 C-10,10.5 -10,-10.5 -10,-10.5z"/></g></g></g><g mask="url(#__lottie_element_85_1)" style="display: block;"><g transform="matrix(1.0499999523162842,0,0,1.0499999523162842,-157.77499389648438,-574.52490234375)" opacity="1"><g opacity="1" transform="matrix(1,0,0,1,328,695)"><path fill="rgb(24,24,23)" fill-opacity="1" d=" M-9,-12 C-9,-12 9,-12 9,-12 C15.626999855041504,-12 21,-6.626999855041504 21,0 C21,6.626999855041504 15.626999855041504,12 9,12 C9,12 -9,12 -9,12 C-15.626999855041504,12 -21,6.626999855041504 -21,0 C-21,-6.626999855041504 -15.626999855041504,-12 -9,-12z"/></g></g></g><g mask="url(#__lottie_element_85_1)" style="display: block;"><g transform="matrix(1.0499999523162842,0,0,1.0499999523162842,-157.77496337890625,-574.52490234375)" opacity="1"><g opacity="1" transform="matrix(1,0,0,1,370,695)"><path fill="rgb(24,24,23)" fill-opacity="1" d=" M0,-12 C6.626999855041504,-12 12,-6.626999855041504 12,0 C12,6.626999855041504 6.626999855041504,12 0,12 C-6.626999855041504,12 -12,6.626999855041504 -12,0 C-12,-6.626999855041504 -6.626999855041504,-12 0,-12z"/></g></g></g><g mask="url(#__lottie_element_85_1)" style="display: block;"><g transform="matrix(1.0499999523162842,0,0,1.0499999523162842,-157.77499389648438,-574.52490234375)" opacity="1"><g opacity="1" transform="matrix(1,0,0,1,286,695)"><path fill="rgb(24,24,23)" fill-opacity="1" d=" M0,-12 C6.626999855041504,-12 12,-6.626999855041504 12,0 C12,6.626999855041504 6.626999855041504,12 0,12 C-6.626999855041504,12 -12,6.626999855041504 -12,0 C-12,-6.626999855041504 -6.626999855041504,-12 0,-12z"/></g></g></g><g mask="url(#__lottie_element_109_1)" style="display: none;"><g><g><path/></g></g></g><g mask="url(#__lottie_element_109_1)" style="display: none;"><g><g><path/></g></g></g><g style="display: none;"><g><path stroke-linecap="butt" stroke-linejoin="miter" fill-opacity="0" stroke-miterlimit="4"/></g></g><g style="display: none;"><g><path stroke-linecap="butt" stroke-linejoin="miter" fill-opacity="0" stroke-miterlimit="4"/></g></g><g style="display: none;"><g><path stroke-linecap="butt" stroke-linejoin="miter" fill-opacity="0" stroke-miterlimit="4"/></g></g><g style="display: none;"><g><path/></g></g><g style="display: none;"><g><path/></g></g><g style="display: none;"><g><path/></g></g><g style="display: none;"><g><path stroke-linecap="butt" stroke-linejoin="miter" fill-opacity="0" stroke-miterlimit="4"/></g></g><g mask="url(#__lottie_element_85_1)" style="display: block;"><g transform="matrix(1.0499999523162842,0,0,1.0499999523162842,-157.77572631835938,-574.5257568359375)" opacity="1"><g opacity="1" transform="matrix(1,0,0,1,328.45001220703125,696.5499877929688)"><path fill="rgb(24,24,23)" fill-opacity="1" d=" M-15.649999618530273,77.55000305175781 C-15.24899959564209,77.55000305175781 16.150999069213867,77.5479965209961 16.549999237060547,77.54399871826172 C65.68399810791016,77.04199981689453 98.44999694824219,45.68000030517578 98.44999694824219,0.15000000596046448 C98.44999694824219,-45.97600173950195 65.68399810791016,-77.0459976196289 16.549999237060547,-77.54399871826172 C16.150999069213867,-77.5479965209961 -15.24899959564209,-77.55000305175781 -15.649999618530273,-77.55000305175781 C-65.1500015258789,-77.55000305175781 -98.44999694824219,-46.349998474121094 -98.44999694824219,0.15000000596046448 C-98.44999694824219,46.04999923706055 -65.1500015258789,77.55000305175781 -15.649999618530273,77.55000305175781z M-15.649999618530273,48.75 C-51.650001525878906,48.75 -66.6500015258789,31.649999618530273 -66.6500015258789,0.15000000596046448 C-66.6500015258789,-31.649999618530273 -51.650001525878906,-49.04999923706055 -15.649999618530273,-49.04999923706055 C-15.246999740600586,-49.04999923706055 16.152999877929688,-49.04800033569336 16.549999237060547,-49.04399871826172 C51.98099899291992,-48.6619987487793 66.6500015258789,-31.297000885009766 66.6500015258789,0.15000000596046448 C66.6500015258789,31.301000595092773 51.98099899291992,48.36899948120117 16.549999237060547,48.74399948120117 C16.152999877929688,48.74800109863281 -15.246999740600586,48.75 -15.649999618530273,48.75z"/></g></g></g></g></g></svg>