<svg xmlns="http://www.w3.org/2000/svg" fill="none"><rect width="341" height="98" x="8.097" y="43.684" fill="#F9F5EA" stroke="#181817" stroke-width="2" rx="49"/><rect width="325" height="82" x="16.097" y="51.684" stroke="#181817" stroke-width="2" rx="41"/><path fill="#181817" d="M68.297 113.584c4.32 0 7.38-1.98 9.18-4.92h.12v4.02h7.86v-42.9h-8.16v15.84h-.18c-1.68-2.58-4.38-4.56-8.7-4.56-7.68 0-13.14 6.66-13.14 16.26 0 9.96 5.28 16.26 13.02 16.26Zm1.8-6.84c-4.2 0-6.54-3.48-6.54-9.42 0-5.7 2.28-9.66 6.78-9.66 5.22 0 7.14 3.96 7.14 9.84 0 5.64-2.52 9.24-7.38 9.24Zm33.324 6.84c7.92 0 12.78-4.62 13.92-10.08h-8.04c-.9 2.34-2.76 3.78-5.94 3.78-4.62 0-7.26-2.94-7.86-7.68h22.32c0-10.98-5.28-18.54-15.18-18.54-9 0-15.18 7.08-15.18 16.2 0 9.18 5.76 16.32 15.96 16.32Zm-.66-26.22c3.72 0 6.3 2.7 6.54 6.6h-13.68c.72-4.02 2.82-6.6 7.14-6.6Zm28.557 26.22c4.32 0 7.38-1.98 9.18-4.92h.12v4.02h7.86v-42.9h-8.16v15.84h-.18c-1.68-2.58-4.38-4.56-8.7-4.56-7.68 0-13.14 6.66-13.14 16.26 0 9.96 5.28 16.26 13.02 16.26Zm1.8-6.84c-4.2 0-6.54-3.48-6.54-9.42 0-5.7 2.28-9.66 6.78-9.66 5.22 0 7.14 3.96 7.14 9.84 0 5.64-2.52 9.24-7.38 9.24Zm18.864 5.94h8.16v-30.78h-8.16v30.78Zm0-35.58h8.16v-7.32h-8.16v7.32Zm25.898 36.48c8.22 0 13.32-5.22 13.86-11.76h-7.86c-.54 3.48-2.88 5.22-6.18 5.22-4.98 0-7.32-3.9-7.32-9.72 0-5.94 2.52-9.72 7.44-9.72 3 0 5.1 2.04 5.64 4.74h7.98c-1.08-6.66-6-11.28-13.98-11.28-9.36 0-15.36 7.08-15.36 16.26 0 9.18 6.06 16.26 15.78 16.26Zm35.585-.9h7.86v-.3c-.72-.54-1.08-1.92-1.08-4.26v-15.66c0-7.2-3.72-11.34-12.96-11.34-9 0-13.02 4.74-13.26 10.14h7.26c.24-2.94 2.1-4.32 5.94-4.32 3.42 0 5.16 1.44 5.16 3.66 0 2.34-2.34 2.76-7.44 3.48-6.84.96-12.36 3.12-12.36 9.9 0 6.12 4.44 9.42 10.74 9.42 5.28 0 7.5-1.8 9.06-4.14h.12c.18 1.38.48 2.82.96 3.42Zm-8.16-4.98c-2.88 0-4.8-1.02-4.8-3.9s2.1-3.84 6.36-4.8c2.04-.48 4.26-.96 5.7-1.8v4.62c0 3-2.58 5.88-7.26 5.88Zm15.942-20.4h4.26v18.06c0 5.82 4.38 7.38 8.34 7.38 3.24 0 5.1-.12 5.1-.12v-6s-1.38.06-2.4.06c-1.8 0-3.06-.78-3.06-3.06v-16.32h5.28v-5.4h-5.28v-9.6h-7.98v9.6h-4.26v5.4Zm34.089 26.28c7.92 0 12.78-4.62 13.92-10.08h-8.04c-.9 2.34-2.76 3.78-5.94 3.78-4.62 0-7.26-2.94-7.86-7.68h22.32c0-10.98-5.28-18.54-15.18-18.54-9 0-15.18 7.08-15.18 16.2 0 9.18 5.76 16.32 15.96 16.32Zm-.66-26.22c3.72 0 6.3 2.7 6.54 6.6h-13.68c.72-4.02 2.82-6.6 7.14-6.6Zm28.557 26.22c4.32 0 7.38-1.98 9.18-4.92h.12v4.02h7.86v-42.9h-8.16v15.84h-.18c-1.68-2.58-4.38-4.56-8.7-4.56-7.68 0-13.14 6.66-13.14 16.26 0 9.96 5.28 16.26 13.02 16.26Zm1.8-6.84c-4.2 0-6.54-3.48-6.54-9.42 0-5.7 2.28-9.66 6.78-9.66 5.22 0 7.14 3.96 7.14 9.84 0 5.64-2.52 9.24-7.38 9.24Z"/></svg>