<svg xmlns="http://www.w3.org/2000/svg" fill="none"><path fill="#F9F5EA" stroke="#181817" stroke-width="2" d="M293 90c0 24.374-16.14 46.601-42.577 62.787C224.002 168.963 187.439 179 147 179s-77.002-10.037-103.422-26.213C17.14 136.601 1 114.374 1 90c0-24.374 16.14-46.6 42.578-62.787C69.998 11.038 106.56 1 147 1s77.002 10.037 103.423 26.213C276.86 43.4 293 65.626 293 90Z"/><path fill="#F9F5EA" stroke="#181817" stroke-width="2" d="M285 90c0 22.146-15.223 42.375-40.22 57.121C219.805 161.855 185.237 171 147 171s-72.805-9.145-97.78-23.879C24.223 132.375 9 112.146 9 90s15.223-42.375 40.22-57.121C74.195 18.145 108.763 9 147 9s72.805 9.145 97.78 23.879C269.777 47.625 285 67.853 285 90Z"/><path fill="#181817" d="m134.408 125 11.048-.002c16.858-.172 28.1-10.928 28.1-26.544 0-15.82-11.242-26.476-28.1-26.646-.137-.002-10.91-.003-11.048-.003-16.983 0-28.408 10.701-28.408 26.65C106 114.195 117.425 125 134.408 125Zm0-9.878c-12.351 0-17.498-5.864-17.498-16.668 0-10.906 5.147-16.874 17.498-16.874.139 0 10.912 0 11.048.002 12.156.131 17.189 6.087 17.189 16.872 0 10.684-5.033 16.538-17.189 16.666-.136.002-10.909.002-11.048.002Z"/><path fill="#181817" fill-rule="evenodd" d="M120.238 74.206a4.974 4.974 0 1 0-4.974-4.973 4.974 4.974 0 0 0 4.974 4.973Zm0 9.26c7.864 0 14.239-6.372 14.239-14.233 0-7.86-6.375-14.233-14.239-14.233C112.375 55 106 61.372 106 69.233c0 7.861 6.375 14.233 14.238 14.233ZM159.351 74.206a4.974 4.974 0 1 0-4.974-4.973 4.974 4.974 0 0 0 4.974 4.973Zm0 9.26c7.864 0 14.239-6.372 14.239-14.233 0-7.86-6.375-14.233-14.239-14.233-7.863 0-14.238 6.372-14.238 14.233 0 7.861 6.375 14.233 14.238 14.233ZM173.933 93.522v9.727l4.803.706V92.816l-4.803.706Zm-9.264-7.998v25.723l23.331 3.43V82.095l-23.331 3.43Z" clip-rule="evenodd"/><path fill="#181817" d="M46.779 81.246c.723-1.328.718-2.423-1.055-4.537L36.48 65.634l-.988 1.813 5.433 6.183c.722.831 1.738 1.876 1.738 1.876l-.023.043s-1.44-.266-2.53-.422l-8.188-1.125-1.01 1.854 12.9 1.506.845 1.007c.824.995.834 1.63.444 2.346-.31.569-.61.87-.864 1.033l-.046.084 1.518.827c.442-.36.714-.76 1.07-1.413ZM51.345 68.15c2.551-2.707 1.968-6.357-.652-8.826-2.62-2.47-6.298-2.836-8.85-.129-2.534 2.69-1.984 6.375.636 8.844 2.62 2.47 6.33 2.8 8.866.111Zm-1.188-1.12c-1.81 1.922-4.32 1.436-6.312-.44-1.99-1.877-2.642-4.37-.831-6.292 1.81-1.921 4.322-1.401 6.313.475 1.99 1.877 2.64 4.337.83 6.258ZM64.195 57.21l-7.243-10.075-1.578 1.135 4.455 6.197c1.149 1.598.984 3.548-.614 4.697-1.422 1.023-2.806.865-3.745-.44l-4.987-6.938-1.579 1.135 5.016 6.976c1.499 2.085 3.72 2.38 5.786.895 1.461-1.05 1.857-2.31 1.877-3.803l.04-.028.994 1.383 1.578-1.134ZM75.45 51.674c1.589-.74 2.35-1.836 2.69-3.319l.044-.02.639 1.37 1.762-.82L73.34 33.33l-1.762.82 2.746 5.896-.043.02c-1.215-.731-2.798-.947-4.386-.207-2.785 1.297-3.925 4.476-2.182 8.218 1.682 3.611 4.671 5.026 7.739 3.597Zm-.623-1.51c-2.154 1.003-4.113-.36-5.3-2.906-1.175-2.524-.979-4.945 1.153-5.938 2.328-1.085 4.441.155 5.657 2.766 1.186 2.545.992 4.912-1.51 6.078ZM88.125 46.541c3.515-1.216 4.69-4.72 3.513-8.123-1.177-3.402-4.267-5.431-7.782-4.215-3.493 1.209-4.713 4.73-3.536 8.131 1.177 3.402 4.312 5.416 7.805 4.207ZM87.59 45c-2.495.863-4.494-.73-5.388-3.316-.895-2.586-.316-5.097 2.178-5.96 2.495-.864 4.48.761 5.374 3.347.895 2.585.331 5.066-2.164 5.93ZM94.254 31.313l-1.884.48 3.067 12.024 1.884-.48-1.887-7.396c-.504-1.977.547-3.681 2.454-4.168 1.698-.433 2.946.19 3.344 1.748l2.112 8.279 1.883-.48-2.153-8.442c-.635-2.489-2.52-3.47-5.031-2.829-1.744.445-2.77 1.475-3.34 2.834l-.046.012-.403-1.582ZM106.309 23.657l-2 .402.472 2.353.918-.185c.203 1.012-.056 1.554-.554 1.874l.179.894c1.073-.387 1.797-1.29 1.457-2.985l-.472-2.353ZM109.936 29.401l1.777-.292 1.381 8.383c.285 1.728 1.527 2.18 3.09 1.923a7.598 7.598 0 0 0 1.512-.42l-.274-1.657-.071.012a3.685 3.685 0 0 1-.991.333c-.781.129-1.278-.081-1.418-.934l-1.311-7.956 2.368-.39-.258-1.563-2.368.39-.636-3.86-1.918.316.636 3.86-1.776.293.257 1.562ZM128.17 37.813l2.011-.141 1.555-7.64c.214-1.05.44-2.63.44-2.63l.048-.004s.42 1.535.78 2.544l2.588 7.348 1.987-.14 3.173-12.662-2.011.141-1.76 7.8c-.239 1.05-.507 2.706-.507 2.706l-.048.003s-.448-1.58-.782-2.567l-2.553-7.543-2.035.143-1.541 7.832c-.194 1-.439 2.653-.439 2.653l-.047.004s-.498-1.601-.858-2.61l-2.717-7.484-2.083.147 4.799 12.1ZM153.226 37.145a2.66 2.66 0 0 0 1.057-.187l.006-1.416h-.072c-1.081.235-1.319-.318-1.315-1.326l.025-5.904c.012-2.952-1.928-3.944-4.568-3.955-3.288-.014-4.879 1.78-4.961 4.18l1.872.007c.079-1.871 1.091-2.731 3.107-2.723 1.776.007 2.781.804 2.775 2.196-.006 1.343-1.23 1.506-2.983 1.763-3.098.467-5.405 1.058-5.417 3.986-.01 2.352 1.834 3.464 4.186 3.473 2.112.009 3.388-.994 4.136-1.95h.024c.187 1.272.856 1.851 2.128 1.856Zm-5.85-1.392c-1.272-.005-2.567-.37-2.56-2.027.008-1.824 1.569-2.153 3.515-2.505 1.056-.188 2.186-.495 2.835-.9l-.008 2.112c-.006 1.44-1.19 3.33-3.782 3.32ZM158.528 24.874l-1.94-.129-.821 12.381 1.94.129.505-7.615c.135-2.036 1.664-3.33 3.628-3.2 1.748.116 2.741 1.096 2.635 2.7l-.566 8.526 1.94.129.577-8.693c.17-2.562-1.317-4.08-3.904-4.252-1.796-.119-3.09.541-4.054 1.656l-.048-.004.108-1.628ZM168.953 27.271l1.788.21-.987 8.438c-.203 1.74.866 2.517 2.439 2.702a7.577 7.577 0 0 0 1.569.014l.195-1.669-.072-.008a3.686 3.686 0 0 1-1.044.047c-.787-.092-1.206-.431-1.106-1.29l.937-8.009 2.384.279.184-1.573-2.384-.28.454-3.885-1.93-.225-.455 3.885-1.788-.209-.184 1.573ZM183.028 29.217l1.768.339-1.599 8.344c-.33 1.72.679 2.574 2.235 2.872a7.58 7.58 0 0 0 1.564.129l.316-1.65-.071-.014a3.69 3.69 0 0 1-1.045-.029c-.778-.15-1.171-.518-1.009-1.366l1.518-7.92 2.357.452.298-1.556-2.357-.452.737-3.842-1.91-.366-.736 3.842-1.768-.339-.298 1.556ZM194.27 43.069c3.605.919 6.515-1.36 7.405-4.849.889-3.488-.573-6.883-4.178-7.802-3.581-.914-6.537 1.354-7.427 4.842-.89 3.488.619 6.895 4.2 7.809Zm.404-1.582c-2.558-.652-3.35-3.084-2.674-5.735.677-2.65 2.542-4.429 5.1-3.776 2.558.652 3.321 3.1 2.644 5.752-.676 2.65-2.512 4.412-5.07 3.76ZM211.62 48.687c2.658 1.043 5.022.603 5.933-1.72 1.043-2.659-.699-3.935-2.839-5.316-1.83-1.182-2.851-1.866-2.36-3.117.359-.916 1.318-1.39 2.972-.742 1.72.675 2.284 1.67 1.867 3.259l1.854.727c.617-2.362-.256-4.277-3.116-5.399-2.681-1.051-4.646-.378-5.4 1.543-.99 2.525.859 3.792 2.954 5.155 1.947 1.279 2.71 1.965 2.201 3.26-.42 1.073-1.527 1.593-3.426.848-1.72-.675-2.842-1.76-2.299-3.866l-1.854-.728c-.838 2.662.34 4.851 3.513 6.096ZM222.423 53.556c3.306 1.706 6.654.138 8.304-3.061 1.651-3.2.989-6.836-2.317-8.542-3.284-1.694-6.674-.149-8.325 3.05-1.651 3.2-.946 6.858 2.338 8.553Zm.749-1.45c-2.346-1.211-2.572-3.758-1.317-6.19 1.255-2.43 3.472-3.744 5.818-2.534 2.346 1.211 2.539 3.768 1.284 6.2-1.254 2.43-3.439 3.734-5.785 2.524ZM237.226 62.48l7.134-10.151-1.591-1.118-4.388 6.245c-1.131 1.61-3.028 2.096-4.638.964-1.433-1.007-1.739-2.366-.815-3.682l4.913-6.99-1.591-1.118-4.94 7.03c-1.476 2.1-1.024 4.296 1.057 5.759 1.473 1.035 2.792.994 4.209.522l.039.028-.98 1.394 1.591 1.118ZM248.698 56.129l-1.371-1.378-8.795 8.753 1.371 1.378 5.41-5.384c1.446-1.44 3.449-1.4 4.837-.005 1.236 1.241 1.334 2.633.194 3.768l-6.056 6.026 1.372 1.378 6.175-6.145c1.82-1.811 1.706-3.933-.122-5.77-1.27-1.276-2.678-1.636-4.138-1.436l-.033-.034 1.156-1.151ZM248.49 75.778c.874 1.518 2.031 2.181 3.538 2.394l.024.042-1.311.754.97 1.685 14.873-8.56-.97-1.684-5.637 3.244-.024-.042c.624-1.273.703-2.869-.171-4.387-1.532-2.663-4.798-3.525-8.376-1.466-3.453 1.987-4.604 5.087-2.916 8.02Zm1.45-.752c-1.185-2.06.005-4.129 2.439-5.53 2.413-1.388 4.842-1.401 6.015.637 1.281 2.226.228 4.438-2.268 5.874-2.434 1.4-4.809 1.411-6.186-.981ZM55.456 136.013l1.65 1.029 9.08-14.56-1.649-1.029-9.081 14.56ZM60.057 138.777l1.697.948 6.054-10.831-1.697-.948-6.054 10.831Zm7.202-12.884 1.697.948 1.17-2.095-1.696-.948-1.171 2.095ZM72.285 144.897l2.067.963-1.475-9.451 6.192-2.04-2.24-1.043-7.178 2.507 4.246-9.116-1.762-.821-7.247 15.555 1.763.821 2.098-4.503 2.383-.796 1.153 7.924ZM81.383 148.763c2.644.944 4.984.174 6.422-2.14l-1.785-.638c-.972 1.436-2.393 1.846-4.088 1.241-2.35-.84-2.993-3.108-2.28-5.53l9.04 3.23c1.38-3.865.474-7.247-3.03-8.499-3.322-1.187-6.522.78-7.733 4.17-1.211 3.39-.117 6.89 3.454 8.166Zm3.763-10.889c2.102.751 2.79 2.602 2.072 4.971l-7.029-2.511c1.03-2.028 2.787-3.235 4.957-2.46ZM100.563 154.286c2.736.633 4.971-.403 6.131-2.869l-1.847-.427c-.799 1.54-2.163 2.112-3.916 1.706-2.432-.562-3.333-2.74-2.906-5.228l9.353 2.161c.924-3.999-.368-7.253-3.993-8.09-3.437-.795-6.388 1.529-7.198 5.036-.81 3.508.681 6.858 4.376 7.711Zm2.477-11.251c2.174.503 3.073 2.262 2.634 4.698l-7.273-1.681c.789-2.133 2.394-3.536 4.639-3.017ZM112.106 156.203l2.133.342L120.611 145l-1.991-.319-3.829 7.359c-.526 1.009-1.22 2.453-1.22 2.453l-.047-.007s-.211-1.565-.392-2.712l-1.289-8.18-2.062-.33 2.325 12.939ZM126.332 158.375c2.796.267 4.875-1.052 5.702-3.649l-1.887-.181c-.591 1.631-1.867 2.377-3.659 2.205-2.485-.237-3.664-2.279-3.567-4.801l9.556.914c.391-4.085-1.317-7.142-5.02-7.496-3.512-.336-6.132 2.354-6.475 5.938-.343 3.584 1.576 6.709 5.35 7.07Zm.978-11.479c2.222.213 3.344 1.839 3.228 4.311l-7.43-.711c.502-2.218 1.909-3.82 4.202-3.6ZM137.217 146.367l-1.942-.084-.538 12.396 1.942.084.299-6.881c.101-2.326 1.842-3.692 3.76-3.609.383.017.574.049.858.158l.072.003.081-1.87a1.85 1.85 0 0 0-.785-.178c-1.655-.072-2.993.878-3.788 2.045l-.048-.002.089-2.062ZM145.953 163.121c1.512-.013 2.468-.549 3.455-3.125l5.193-13.459-2.064.017-2.768 7.751c-.376 1.035-.796 2.43-.796 2.43l-.048.001s-.468-1.388-.86-2.417l-2.992-7.704-2.112.018 4.947 12.007-.47 1.228c-.47 1.204-1.019 1.521-1.835 1.527-.648.006-1.057-.111-1.322-.253l-.096.001.014 1.728c.53.212 1.01.256 1.754.25ZM162.389 158.806c3.711-.253 5.762-3.329 5.516-6.92-.245-3.592-2.696-6.359-6.407-6.105-3.688.252-5.786 3.331-5.541 6.922.246 3.592 2.744 6.356 6.432 6.103Zm-.112-1.628c-2.633.18-4.146-1.881-4.332-4.611-.187-2.729 1.029-5.002 3.662-5.182 2.634-.18 4.124 1.907 4.311 4.637.187 2.729-1.007 4.976-3.641 5.156ZM171.594 145.164l-1.926.263 1.676 12.294 1.926-.262-1.031-7.562c-.275-2.022.963-3.595 2.913-3.861 1.736-.237 2.906.524 3.123 2.117l1.154 8.466 1.926-.262-1.177-8.633c-.346-2.544-2.107-3.733-4.675-3.383-1.784.243-2.92 1.149-3.641 2.434l-.048.006-.22-1.617ZM189.934 155.049c2.75-.565 4.35-2.437 4.379-5.163l-1.858.382c-.085 1.732-1.087 2.82-2.85 3.182-2.445.502-4.171-1.103-4.819-3.543l9.404-1.931c-.826-4.02-3.357-6.44-7.001-5.692-3.455.71-5.17 4.051-4.446 7.577.724 3.527 3.476 5.951 7.191 5.188Zm-2.436-11.26c2.187-.45 3.737.776 4.352 3.173l-7.312 1.502c-.171-2.268.704-4.212 2.96-4.675ZM209.204 149.93c2.669-.872 4.047-2.913 3.767-5.625l-1.802.589c.111 1.732-.761 2.926-2.472 3.485-2.372.775-4.269-.625-5.189-2.976l9.125-2.982c-1.275-3.901-4.063-6.019-7.599-4.864-3.353 1.096-4.679 4.61-3.561 8.032 1.119 3.422 4.127 5.519 7.731 4.341Zm-3.692-10.913c2.121-.693 3.8.349 4.682 2.661l-7.095 2.319c-.427-2.234.223-4.264 2.413-4.98ZM216.882 146.823l1.808-.715-6.308-15.958-1.808.714 6.308 15.959ZM226.48 143.073c2.582-1.22 3.883-3.242 2.816-5.499-1.221-2.582-3.344-2.188-5.816-1.577-2.116.522-3.314.796-3.888-.419-.421-.889-.108-1.913 1.497-2.672 1.671-.79 2.782-.518 3.653.875l1.801-.851c-1.297-2.069-3.289-2.746-6.067-1.433-2.603 1.231-3.461 3.123-2.579 4.989 1.159 2.452 3.349 1.974 5.778 1.383 2.266-.54 3.288-.625 3.883.633.492 1.042.112 2.204-1.732 3.076-1.671.789-3.229.862-4.391-.978l-1.801.852c1.364 2.435 3.765 3.078 6.846 1.621ZM238.219 136.615c2.383-1.487 3.232-3.798 2.311-6.363l-1.609 1.003c.523 1.654-.038 3.022-1.566 3.975-2.117 1.321-4.294.416-5.75-1.646l8.145-5.081c-2.171-3.482-5.386-4.872-8.542-2.903-2.994 1.867-3.44 5.596-1.535 8.651 1.906 3.054 5.329 4.37 8.546 2.364Zm-6.198-9.712c1.894-1.181 3.773-.571 5.183 1.463l-6.333 3.95c-.95-2.067-.805-4.193 1.15-5.413Z"/></svg>