<svg xmlns="http://www.w3.org/2000/svg" fill="none"><path fill="#181817" d="m116 0 13.41 31.331 22.436-25.654 3.072 33.942 29.265-17.465-7.567 33.23 33.23-7.567-17.465 29.265 33.942 3.072-25.654 22.436L232 116l-31.331 13.41 25.654 22.436-33.942 3.072 17.465 29.265-33.23-7.567 7.567 33.23-29.265-17.465-3.072 33.942-22.436-25.654L116 232l-13.41-31.331-22.436 25.654-3.072-33.942-29.265 17.465 7.567-33.23-33.23 7.567 17.465-29.265-33.942-3.072 25.654-22.436L0 116l31.331-13.41L5.677 80.154l33.942-3.072-17.465-29.265 33.23 7.567-7.567-33.23 29.265 17.465 3.072-33.942 22.436 25.654L116 0Z"/><path fill="#F9F5EA" d="M111.732 135.9c4.321 0 8.221-1.38 11.401-3.72l2.22 2.82h9.96l-6.78-8.76c2.34-3.84 3.72-8.46 4.08-13.26h-7.26c-.24 2.34-.84 4.8-1.68 6.96l-5.7-7.38c4.62-2.4 7.68-5.04 7.68-10.32 0-5.88-4.74-9.84-11.22-9.84-6.66 0-11.1 4.32-11.1 9.9 0 3.48 1.14 5.88 3.6 8.88-5.58 2.82-9.48 6.66-9.48 12.78 0 6.72 4.86 11.94 14.279 11.94Zm.301-6.72c-3.36 0-5.94-2.22-5.94-5.46 0-2.7 1.26-5.1 4.92-7.32l7.86 10.26c-1.92 1.62-4.26 2.52-6.84 2.52Zm-.84-26.76c0-2.04 1.44-3.48 3.36-3.48 1.8 0 3.36 1.32 3.36 3.42 0 2.04-.78 3.9-3.6 5.58-1.8-1.74-3.12-3.6-3.12-5.52ZM61.745 81.185l-1.16 1.56 9.955 7.405 1.16-1.56-5.526-4.11c-1.868-1.39-2.021-3.597-.875-5.138.23-.308.363-.448.612-.622l.043-.057-1.502-1.118c-.22.136-.373.261-.588.55-.989 1.329-.953 2.97-.435 4.283l-.028.039-1.656-1.232ZM79.08 80.786c2.06-1.909 2.458-4.34 1.07-6.685l-1.391 1.29c.825 1.525.532 2.974-.788 4.198-1.83 1.697-4.14 1.218-5.958-.532l7.041-6.526c-2.79-3.01-6.208-3.768-8.937-1.24-2.587 2.399-2.322 6.145.125 8.785 2.447 2.64 6.057 3.288 8.838.71Zm-7.919-8.368c1.638-1.517 3.598-1.273 5.367.459l-5.475 5.074c-1.322-1.85-1.581-3.967.108-5.533ZM87.786 74.344c2.448-1.47 3.541-3.611 2.256-5.751-1.47-2.448-3.545-1.846-5.944-.993-2.053.73-3.218 1.122-3.91-.03-.507-.844-.297-1.894 1.225-2.808 1.584-.952 2.716-.792 3.721.508l1.707-1.026c-1.495-1.93-3.545-2.406-6.178-.824-2.469 1.483-3.134 3.451-2.072 5.22 1.397 2.325 3.529 1.632 5.887.804 2.201-.763 3.21-.949 3.927.245.593.987.33 2.18-1.419 3.232-1.584.951-3.127 1.178-4.466-.537l-1.707 1.026c1.598 2.287 4.051 2.69 6.973.934ZM97.699 69.755c3.521-1.199 4.714-4.697 3.554-8.106-1.16-3.408-4.239-5.453-7.76-4.254-3.5 1.19-4.737 4.704-3.577 8.113 1.16 3.408 4.284 5.437 7.783 4.247Zm-.526-1.545c-2.5.85-4.49-.754-5.372-3.344-.881-2.59-.29-5.099 2.21-5.95 2.499-.85 4.475.785 5.356 3.375.882 2.59.305 5.068-2.194 5.919ZM113.904 66.37l-1.36-12.334-1.933.213.837 7.586c.216 1.956-.886 3.575-2.842 3.79-1.741.193-2.87-.625-3.046-2.223l-.936-8.492-1.933.213.942 8.54c.282 2.552 2.072 3.9 4.601 3.621 1.789-.197 2.752-1.1 3.503-2.39l.048-.005.186 1.693 1.933-.213ZM118.578 54.297l-1.94-.135-.864 12.378 1.939.135.48-6.871c.162-2.323 1.939-3.642 3.854-3.508.383.026.573.064.853.18l.072.005.131-1.868a1.87 1.87 0 0 0-.78-.199c-1.652-.115-3.015.8-3.841 1.945l-.048-.003.144-2.059ZM128.278 68.706c2.998.773 5.312-.414 6.311-3.23l-1.859-.48c-.642 1.818-2.092 2.633-4.044 2.13-2.556-.66-3.341-3.093-2.658-5.742.684-2.65 2.554-4.422 5.11-3.763 1.813.468 2.694 1.76 2.553 3.46l1.906.491c.241-2.664-1.222-4.776-4.057-5.508-3.579-.923-6.541 1.336-7.441 4.822-.899 3.486.6 6.896 4.179 7.82ZM138.572 72.663c2.508 1.262 4.924.785 6.636-1.337l-1.694-.852c-1.141 1.307-2.601 1.54-4.209.731-2.23-1.121-2.589-3.451-1.585-5.767l8.576 4.313c1.844-3.666 1.358-7.134-1.965-8.806-3.152-1.585-6.569-.026-8.186 3.19-1.618 3.216-.961 6.824 2.427 8.528Zm5.069-10.345c1.994 1.003 2.451 2.925 1.447 5.187l-6.668-3.354c1.271-1.886 3.163-2.869 5.221-1.833ZM150.515 66.707l1.367 1.017-6.46 8.684 1.56 1.16 6.46-8.684 1.849 1.375.945-1.27-1.848-1.376 1.131-1.521c.602-.81 1.154-.787 2.155-.042.154.114.231.172.487.391l.988-1.328a10.071 10.071 0 0 0-.761-.626c-1.656-1.232-3.096-1.346-4.371.367l-1.189 1.599-1.367-1.017-.946 1.27ZM156.652 86.812l9.004-8.538-1.338-1.41-5.538 5.25c-1.428 1.355-3.383 1.456-4.737.028-1.205-1.272-1.236-2.664-.069-3.77l6.2-5.88-1.338-1.41-6.235 5.911c-1.863 1.767-1.855 4.008-.104 5.855 1.238 1.306 2.539 1.527 4.021 1.346l.033.035-1.236 1.172 1.337 1.41ZM157.921 89.004l1.222 1.512 13.345-10.788-1.222-1.512-13.345 10.788ZM74.209 163.55c2.237 1.776 4.625 2.048 6.177.093 1.776-2.236.484-3.967-1.157-5.914-1.405-1.666-2.18-2.619-1.345-3.672.612-.77 1.669-.943 3.06.161 1.447 1.149 1.695 2.265.83 3.663l1.56 1.239c1.282-2.078 1.008-4.165-1.398-6.075-2.255-1.791-4.332-1.723-5.615-.106-1.686 2.124-.29 3.876 1.315 5.793 1.487 1.794 2.015 2.673 1.15 3.763-.717.902-1.927 1.075-3.525-.193-1.447-1.149-2.202-2.515-1.065-4.37l-1.56-1.239c-1.581 2.3-1.096 4.738 1.573 6.857ZM86.103 158.374l1.574.873-4.122 7.429c-.85 1.532-.158 2.657 1.227 3.426.504.279 1 .473 1.446.61l.815-1.469-.063-.035a3.67 3.67 0 0 1-.984-.354c-.692-.384-.951-.857-.532-1.613l3.913-7.051 2.098 1.165.769-1.385-2.099-1.165 1.898-3.421-1.7-.943-1.898 3.421-1.574-.873-.768 1.385ZM95.946 161.528l-1.814-.698-4.456 11.581 1.815.698 2.473-6.429c.836-2.173 2.921-2.913 4.713-2.224.358.138.529.229.763.422l.067.026.673-1.747a1.88 1.88 0 0 0-.688-.419c-1.545-.594-3.117-.119-4.242.734l-.045-.017.741-1.927ZM109.112 177.843c.496.093.82.057 1.074.007l.262-1.392-.071-.013c-1.106.036-1.239-.551-1.053-1.542l1.092-5.802c.547-2.901-1.182-4.227-3.776-4.716-3.231-.608-5.121.868-5.636 3.213l1.84.346c.417-1.826 1.567-2.489 3.549-2.116 1.745.329 2.589 1.294 2.331 2.662-.248 1.321-1.482 1.259-3.253 1.194-3.131-.101-5.506.063-6.048 2.94-.435 2.312 1.176 3.738 3.488 4.174 2.075.39 3.512-.365 4.421-1.171l.023.005c-.046 1.285.507 1.976 1.757 2.211Zm-5.501-2.428c-1.25-.235-2.457-.829-2.151-2.456.338-1.793 1.933-1.834 3.91-1.828 1.073.006 2.239-.092 2.952-.373l-.391 2.076c-.267 1.415-1.773 3.061-4.32 2.581ZM113.087 167.12l1.8.026-.125 8.496c-.026 1.751 1.116 2.416 2.7 2.44a7.624 7.624 0 0 0 1.562-.145l.025-1.68-.072-.001c-.217.068-.65.158-1.034.152-.792-.011-1.244-.306-1.231-1.17l.119-8.063 2.399.035.024-1.583-2.4-.036.058-3.911-1.944-.029-.058 3.912-1.8-.027-.023 1.584ZM128.185 177.434c2.774-.437 4.459-2.233 4.613-4.954l-1.873.295c-.165 1.726-1.216 2.767-2.994 3.047-2.466.388-4.116-1.296-4.65-3.763l9.483-1.493c-.639-4.054-3.054-6.589-6.729-6.011-3.485.549-5.353 3.808-4.793 7.364.56 3.556 3.197 6.105 6.943 5.515Zm-1.911-11.361c2.205-.348 3.696.948 4.2 3.371l-7.373 1.162c-.067-2.274.897-4.175 3.173-4.533ZM143.9 177.03c3.057-1.211 4.499-3.434 3.298-6.469l-4.322-10.911-1.808.716.584 1.473-.045.017c-1.214-.784-2.541-1.007-4.215-.344-2.677 1.061-4.1 4.051-2.677 7.643 1.316 3.325 4.315 4.899 7.305 3.715 1.651-.654 2.292-1.708 2.707-3.137l.044-.018.646 1.629c.795 2.008-.008 3.436-2.127 4.276-1.785.707-3.185.693-3.867-.508l-1.674.663c.988 1.906 3.161 2.439 6.151 1.255Zm-2.392-5.712c-2.142.848-3.934-.353-4.933-2.874-.989-2.499-.568-4.628 1.597-5.485 2.454-.972 4.144.165 5.143 2.687.963 2.432.849 4.62-1.807 5.672ZM151.424 168.846l1.672-.991-6.325-10.674-1.673.991 6.326 10.674Zm-7.525-12.698 1.673-.991-1.224-2.065-1.672.991 1.223 2.065ZM161.138 162.517c2.4-1.956 2.815-4.524 1.139-6.997l-1.488 1.213c1.083 1.594.88 3.245-.682 4.519-2.046 1.668-4.472.858-6.2-1.263-1.729-2.12-2.048-4.678-.002-6.346 1.451-1.182 3.015-1.125 4.299-.005l1.526-1.244c-2.003-1.773-4.571-1.847-6.841.003-2.865 2.335-2.801 6.061-.526 8.851 2.274 2.79 5.91 3.604 8.775 1.269Z"/></svg>